<svg xmlns="http://www.w3.org/2000/svg" xmlns:xlink="http://www.w3.org/1999/xlink" width="414" height="330.785" viewBox="0 0 414 330.785"><defs><clipPath id="a"><rect width="414" height="330.785" transform="translate(22.035 0)" fill="none"/></clipPath><linearGradient id="b" x1="1" y1="0.877" x2="0.86" y2="0.879" gradientUnits="objectBoundingBox"><stop offset="0" stop-color="#fafaff" stop-opacity="0.8"/><stop offset="0.477" stop-color="#ececff"/><stop offset="1" stop-color="#fafaff" stop-opacity="0.8"/></linearGradient><clipPath id="c"><path d="M345.329,325.9s.4,13.052.385,21.244c1.326,10.561-3.607,30.412-3.815,39.847-.747,12.232.088,26.411.85,36.893.147,2.011,9.661,5.195,14.067,7.571,0,0-3.922,1.729-10.2-.605-3.536-1.314-7.36.707-8.957-.551-1.954-1.536.448-4.091-.028-5.654-2.984-9.795-12.369-28.9-6.164-39.529,0,0-10.811-43.107-.771-55.987C333.751,324.944,345.329,325.9,345.329,325.9Z" transform="translate(-326.425 -325.806)" fill="#415da5"/></clipPath><clipPath id="d"><path d="M365.67,327.727s.646,9.037.954,19.928c.3,10.642-6.523,29.922-7.64,39.294-1.922,12.1-2.46,26.3-2.712,36.8-.048,2.018,9.116,6.1,13.272,8.894,0,0-4.071,1.342-10.094-1.586-3.393-1.649-7.394-.007-8.864-1.412-1.8-1.718.841-4.028.518-5.631-2.026-10.037-9.524-29.958-2.323-39.939,0,0-4.532-41.278,3.142-49.9,1.263-1.42,3.945-4.668,6.209-7.119C361.035,323.913,365.67,327.727,365.67,327.727Z" transform="translate(-345.721 -325.813)" fill="#415da5"/></clipPath></defs><g transform="translate(-781.702 -127.698)"><g transform="translate(759.667 127.698)" clip-path="url(#a)"><path d="M2149.947,645.5v-1.285h-13.855V645.5Zm-862.642-6.245v-1.068h-1.356v1.068Zm-4.412,0v-1.068h-1.375v1.068Zm307.2-1.218v-.517h-36.158v.517Zm-420.876-1.164v-2.765h-63.473v2.765Zm420.876-3.255V633.1h-36.158v.519Zm-1069.282-1.5v-3.046h-6.245v3.046Zm-38.543,0v-3.046h-6.25v3.046ZM1590.089,629.2v-.525h-36.158v.525Zm-292.334-3.081v-1.079h-1.375v1.079Zm894.332-.565v-1.29h-13.864v1.29Zm-602-.779v-.522h-36.158v.522Zm750.4.136v-.667h-3.41v.667Zm-1283.523-.677v-3.742h-7.7v3.742Zm533.124-3.881v-.522h-36.158v.522Zm552.933-.862V618.2h-13.854v1.29ZM672.713,620.562v-3.038h-6.244v3.038Zm-223.007,0v-3.038h-6.259v3.038Zm184.468,0v-3.043h-6.263v3.043Zm955.914-4.634v-.522h-36.158v.522ZM2428,615.893v-.672h-3.411v.672Zm-132.506-2.837v-1.285h-2.644v1.285Zm-1126.278,1.221v-2.752h-63.473v2.752Zm420.876-2.77v-.522h-36.158v.522Zm540.226-2.942v-1.3h-2.644v1.3Zm-540.226-1.483v-.519h-36.158v.519Zm-988.476,1.943v-3.038h-6.259v3.038Zm-35.464.005v-3.044h-6.263v3.044Zm-83.885,0v-3.044h-6.25v3.044ZM2366.233,604.2v-.666h-3.415v.666Zm170.99,0v-.669h-3.41v.669Zm-947.134-1.544v-.517h-36.158v.517Zm-302.217.388V601.98H1286.5v1.068Zm1054.325-1.6v-.669h-3.411v.669Zm134.6-1.566v-.672h-3.406v.672Zm-886.7-1.641v-.519h-36.158v.519Zm211.792-1.06v-.958h-6.617v.958Zm412.332-.008v-1.29h-2.639v1.29Zm207.506-.642v-.669h-3.406v.669Zm-1703.656,1.89v-3.041h-6.272v3.041Zm-83.889,0v-3.041h-6.263v3.041Zm-184.468,0v-3.041h-6.259v3.041Zm839.871-3.672v-1.071h-1.365v1.071ZM998.9,597.119v-3.748H991.2v3.748Zm591.186-3.3V593.3h-36.158v.522Zm688.885.726v-1.282h-2.644v1.282Zm525.568.11v-3.137h-5.868v3.137ZM2013.378,597.1v-6.384h-1.968V597.1Zm-83.037,0v-6.384h-1.964V597.1Zm-150.319-5.447v-.95H1773.4v.95Zm1150.355.766v-1.973h-2.132v1.973Zm-2894.3-.327v-1.97H33.959v1.97Zm-15.469,0v-1.97H18.481v1.97Zm1148.6-.393v-2.757h-63.473V591.7Zm420.876-2.294v-.527h-36.158v.527Zm596.388-.755v-1.285h-2.644v1.285Zm-874.238-2.329v-1.073h-1.393v1.073Zm-710.626,1.9v-3.049h-6.259v3.049Zm988.476-3.242v-.519h-36.158v.519Zm666.423.137v-1.285h-2.653v1.285Zm289.636-1.266v-.669h-3.406v.669Zm198.9,1.563v-3.134h-5.868v3.134Zm-1154.958-4.856v-.516h-36.158v.516ZM44.14,581.832v-1.967H42.022v1.967Zm-16.117,0v-1.967H25.9v1.967Zm2598.309-3.656v-.664h-3.41v.664Zm-281.795-.9v-.656h-3.415v.656Zm570.365.873V576.17h-2.131v1.975Zm-1113.022-1.151v-.961h-6.617v.961Zm-47.645,0v-.961h-6.617v.961Zm-164.147-.867v-.517h-36.158v.517Zm1036.244-.1v-.669h-3.41v.669Zm-206.318,0v-.669H2416.6v.669Zm91.359-.273v-.674h-3.415v.674Zm-486.635,5.7v-6.392h-1.959v6.392Zm-103.794,0v-6.392h-1.968v6.392Zm564.067-6.531v-.664H2481.6v.664Zm-1172.772-.645V573.2h-1.393v1.076Zm-4.154,0V573.2h-1.379v1.076Zm-4.154,0V573.2h-1.379v1.076Zm-12.467,0V573.2h-1.374v1.076Zm-4.159,0V573.2h-1.356v1.076Zm302.783-2.57v-.524h-36.158v.524Zm189.933-.244v-.95H1773.4v.95Zm-723.057,2.591v-3.74h-7.7v3.74Zm-58.062,0v-3.74H991.2v3.74Zm1585.7-3.1v-.669H2581.2v.669Zm-201.371-.335v-.669h-3.415v.669Zm-1559.459-.107v-.763h-1.383v.763ZM2344.537,569.2v-.667h-3.415v.667Zm-2300.4.49V567.72H42.022v1.968Zm2733.273.409v-3.129h-5.882V570.1Zm-1187.325-2.811v-.519h-36.158v.519Zm211.792-.383v-.964h-6.617v.964Zm-47.645,0v-.964h-6.617v.964ZM779.8,566.076v-.771h-1.388v.771Zm36.3-.147v-.766h-1.374v.766Zm2114.278.07v-1.967h-2.132V566Zm-15.474,0v-1.967h-2.131V566Zm-682.187-.8v-1.285h-2.644V565.2Zm225.542-1.285v-.674h-3.415v.674Zm-38.244,0v-.674H2416.6v.674Zm-38.489,0v-.674h-3.415v.674Zm-791.437-1.052v-.517h-36.158v.517Zm-291.641-.169v-1.076h-1.378v1.076Zm-470.372-.958v-.768h-1.4v.768Zm762.013-3.287v-.527h-36.158v.527Zm704.078.321v-1.285h-2.644v1.285Zm-1552.815-3.5v-.666h-1.574v.666Zm-30.612,0V554.6h-1.568v.677Zm2226.762.471v-1.973h-2.127v1.973Zm-14.544,0v-1.973h-2.118v1.973ZM1590.089,554.02V553.5h-36.158v.519ZM28.023,555.415v-1.97H25.9v1.97Zm2707.333-.187v-3.142h-5.868v3.142Zm-486.78-3.049v-1.287h-2.639v1.287Zm244.413-.642v-.669h-3.406v.669Zm-38.24,0v-.669h-3.41v.669Zm-239.207.616v-1.285H2212.9v1.285Zm-1134.093,2.43v-3.739h-7.7v3.739Zm-52,0v-3.739h-7.692v3.739Zm1551.132-4.3v-.667h-3.419v.667Zm-990.494-.685v-.511h-36.158v.511Zm419.412,5.669v-6.389h-1.963v6.389Zm-62.275,0v-6.389h-1.964v6.389Zm-20.757,0v-6.389H1924.5v6.389Zm699.974-5.747v-.677h-3.415v.677Zm-133.453-2.023v-.664h-3.406v.664Zm-691.107-.782v-.95h-6.617v.95Zm-47.645,0v-.95h-6.617v.95Zm-444.577-.021v-1.065h-1.369v1.065Zm-8.3,0v-1.065h-1.384v1.065Zm-12.458,0v-1.065H1287.5v1.065Zm-4.154,0v-1.065h-1.374v1.065Zm-104.986-.538v-1.068h-2.2v1.068Zm410.332-.972v-.522h-36.158v.522Zm-920.21.024v-.669h-1.56v.669Zm-7.315,0v-.669h-1.574v.669Zm1867.217-.369v-.675h-3.419v.675Zm241.75,2.372v-3.137h-5.868v3.137Zm151.426-2.628V542.6h-2.118v1.976ZM28.023,544.245v-1.973H25.9v1.973Zm-14.535,0v-1.973H11.356v1.973Zm2589.661-2.473V541.1h-3.415v.669Zm-823.128-.586v-.95H1773.4v.95Zm-189.933-.429v-.522h-36.158v.522ZM2428,540.519v-.669h-3.411v.669Zm-26.367-.83v-.672h-3.406v.672Zm91.359-.27v-.669h-3.406v.669Zm87.595-1.253v-.675h-3.419v.675Zm-990.494-1.836v-.522h-36.158v.522Zm198.4-1.718v-.955h-6.621v.955ZM662.564,533.444v-.675h-1.574v.675Zm-17.165,0v-.675h-1.588v.675Zm103.444.048v-.771h-1.378v.771Zm-21.773,0v-.771h-1.365v.771Zm-38.729,0v-.771h-1.365v.771Zm319-.254v-.766h-1.37v.766Zm-8.29,0v-.766h-1.383v.766Zm-16.626,0v-.766h-1.383v.766Zm-946.345.747v-1.967H33.959v1.967Zm-15.469,0v-1.967H18.481v1.967Zm1569.476-2.072v-.522h-36.158v.522Zm-282,.337v-1.081h-1.379v1.081Zm-90.883-.538v-1.087H1215v1.087Zm-6.657,0v-1.087h-2.222v1.087Zm-19.986,0v-1.087h-2.213v1.087Zm-13.333,0v-1.087h-2.218v1.087Zm1729.61-1.421v-1.965h-2.118v1.965Zm-1140.2-1.2v-.956h-6.626v.956Zm1040.851,2.077v-3.14h-5.868v3.14Zm-35.954,0v-3.14h-5.868v3.14ZM771.487,528.021v-.768h-1.374v.768Zm818.6-.535v-.519h-36.158v.519Zm415.865,5.736v-6.387h-1.973v6.387Zm-62.28,0v-6.387h-1.969v6.387Zm-20.757,0v-6.387h-1.973v6.387Zm-332.828-10.156v-.522h-36.158v.522Zm829.926-.348v-.667H2416.6v.667Zm-1757.45-.353V521.7h-1.574v.666Zm1619.054.021v-1.293h-2.644v1.293Zm96.715-.648v-.667h-3.415v.667Zm-2342.251.11v-1.967H33.959v1.967Zm1554.007-3.2v-.522h-36.158v.522Zm1332.869-.487v-1.976h-2.118v1.976Zm-16.118,0v-1.976h-2.122v1.976Zm-1711.61-2.449V514.64h-2.213v1.071Zm394.859-1.488V513.7h-36.158v.519Zm198.4.209v-.964h-6.621v.964Zm1018.992.688v-3.137h-5.868v3.137Zm-72.13-.16v-3.137h-5.868v3.137ZM731.3,511.966V511.2h-1.383v.768Zm-42.956,0V511.2h-1.365v.768Zm-17.392,0V511.2h-1.37v.768Zm919.139-2.163v-.525h-36.158v.525Zm176.546-.9v-.961h-6.626v.961Zm-762.712-1.29v-.763h-1.379v.763Zm1926.454.292v-1.97h-2.132v1.97Zm-15.474,0v-1.97h-2.131v1.97ZM20.612,507.573v-1.967H18.481v1.967Zm1569.476-2.192v-.525h-36.158v.525ZM2009.5,509.9v-6.387h-1.963V509.9Zm-20.757-3.194v-3.193h-1.968v3.193Zm-41.518,3.194v-6.387h-1.964V509.9Zm-20.757,0v-6.387H1924.5V509.9Zm-20.761,0v-6.387h-1.964V509.9Zm-117.213-5.568v-.958h-6.621v.958Zm-575.413-.209v-1.073h-2.218v1.073Zm-6.653,0v-1.073h-2.218v1.073Zm-20,0v-1.073h-2.213v1.073Zm-6.667,0v-1.073h-2.2v1.073Zm-6.653,0v-1.073h-2.208v1.073Zm416.986-3.169v-.525h-36.158v.525Zm0-4.428v-.509h-36.158v.509Zm1340.288-.83v-1.978h-2.132V495.7Zm-2894.3-.332v-1.975H33.959v1.975Zm-15.469,0v-1.975H18.481v1.975Zm963.6-2.955v-.669h-1.583v.669Zm605.875-.3v-.519h-36.158v.519Zm-416.986-.024V491h-2.208v1.084Zm-484.762-1.172v-.768h-1.374v.768Zm23.433-.594v-.768H710.4v.768Zm878.315-2.629v-.525h-36.158v.525Zm-856.533-1.263v-.771h-1.379v.771Zm1054.937-2.281v-.953h-6.621v.953ZM44.14,485.113v-1.97H42.022v1.97Zm-16.117,0v-1.97H25.9v1.97Zm1562.066-1.844v-.519h-36.158v.519Zm-380.641.388v-1.079h-2.218v1.079Zm-216.789-3.346v-.766h-1.384v.766ZM2914.9,481.427v-1.975h-2.131v1.975Zm-1148.269-2.805v-.953h-6.626v.953Zm218.558,5.418V477.65h-1.968v6.389Zm-20.757,0V477.65h-1.973v6.389Zm-41.519,0V477.65h-1.973v6.389Zm-918.3-7.92v-.771h-1.383v.771Zm207.561-.771v-1.073h-2.222v1.073Zm-549.717-1.264v-.76H661.09v.76Zm2071.553-1.194V471.06h-9.083v1.831ZM44.14,472.976V471H42.022v1.975Zm691.983-4.524v-.76h-1.361v.76Zm-24.9,0v-.76h-1.379v.76Zm-22.88,0v-.76h-1.365v.76Zm-18.957,0v-.76H668v.76Zm2260.992.827v-1.962h-2.132v1.962Zm-15.474,0v-1.962h-2.131v1.962Zm-168.01-1.06V466.4H2737.8v1.815Zm-25.723,0V466.4h-9.088v1.815ZM722.359,464.526v-.763h-1.388v.763Zm2215.143-5.5v-1.97h-2.127v1.97Zm-14.544,0v-1.97h-2.118v1.97ZM28.023,458.7v-1.97H25.9v1.97Zm689.528-2.034V455.9h-1.383v.766Zm1297.8,2.511v-6.387h-1.973v6.387Zm-41.523,0v-6.387h-1.968v6.387Zm-62.275,0v-6.387h-1.973v6.387Zm-715.225-6.882v-1.076h-2.218v1.076Zm-212.894-.7v-.758H982.05v.758Zm1939.524-3.731v-1.973h-2.118v1.973ZM28.023,447.52v-1.973H25.9v1.973Zm-14.535,0v-1.973H11.356v1.973Zm632.423-1.365v-.667h-1.565v.667Zm42.43-.409v-.758h-1.365v.758Zm2045.676-2.979v-1.823h-9.083v1.823Zm-2088.107-2.5V439.6h-1.565v.669Zm86.067.043v-.763H730.6v.763Zm-17.306,0v-.763H713.3v.763Zm-43.02.011v-.774h-1.374v.774Zm548.521-1.178v-1.073h-2.208v1.073Zm-7.093,0v-1.073h-2.218v1.073Zm1533.808-1.055v-1.815H2737.8v1.815ZM36.082,437.271V435.3H33.959v1.975Zm-15.469,0V435.3H18.481v1.975Zm2006.1.819V431.7h-1.973v6.387Zm-41.518,0V431.7h-1.968v6.387Zm-20.757,0V431.7h-1.973v6.387Zm-41.519,0V431.7h-1.973v6.387Zm983.918-4.508V431.61h-2.118v1.973Zm-172.818-.147V431.61h-9.083v1.826Zm-2071.453-7.08v-.672h-1.574v.672Zm521.11-.246v-1.068h-2.214v1.068Zm-504.58-.519v-.672h-1.569v.672Zm-643.013-.46v-1.97H33.959v1.97Zm626.483-2.808v-.669h-1.574v.669Zm2260.393-.878v-1.97h-2.118v1.97Zm-16.118,0v-1.97h-2.122v1.97Zm-1697.392-2.021v-1.076h-2.218v1.076Zm-217.483-.7v-.76h-1.369v.76ZM1702.808,616.48v-203.3h-1.583v203.3Zm-10.775,0v-203.3h-1.578v203.3Zm-10.78,0v-203.3h-1.578v203.3ZM1223.361,412.921v-1.081h-58.5v1.081Zm1707.016-1.737v-1.962h-2.132v1.962Zm-15.474,0v-1.962h-2.131v1.962ZM20.612,410.854V408.89H18.481v1.965Zm641.952-6.191V404h-1.574v.667Zm0-3.731v-.664h-1.574v.664Zm-16.653-2.08v-.669h-1.565v.669Zm32.676-2.6v-.666h-1.579v.666Zm304.148-8.322v-.76h-1.374v.76Zm-320.17-6.1v-.666h-1.574v.666Zm-16.653,0v-.666h-1.565v.666Zm32.676-6.7v-.674h-1.579v.674Zm-16.022-5.412v-.669h-1.574v.669Zm328.814-2.872v-.672H989.8v.672Zm-328.814-16.5v-.669h-1.574v.669Zm16.022-23.807v-.669h-1.579v.669Zm-16.022,0v-.669h-1.574v.669Zm16.022-10.169V315.7h-1.579v.666Zm0-12.11v-.669h-1.579v.669Zm-16.022-5.544v-.664h-1.574v.664Zm7.224-20.921v-.667h-1.569v.667Zm-7.224-8.413v-.669h-1.574v.669Zm0-9.92v-.667h-1.574v.667Zm16.022,0v-.675h-1.579v.675Zm-16.022-26.468v-.666h-1.574v.666Zm0-1.847v-.672h-1.574v.672Zm-8.64-2H690.1V435.039h57.758v83.153h40.48V553.34H839.9v23.408h4.508V614H839.9v7.166h68.815V560.182h54.063V542.9h3.678V354.284L1002.649,369v98.274l22.054,8.823V542.9h9.211v-26.31h42.607V542.9h21.931v42.946h18.821v-1.138H1159.5V410.747h68.393V561.569h9.424V599.56h37.074V584.712h2.141V529.6h40.979v55.114H1342.8v23.946h5.306v2.594h34.833v24.021h2.952v-67.84h49.16v67.84h21.342v10.71h65.273v-5.426h24.766V479.508h51.115V640.557h3.057v-67.7h68.021V407.722l42.593-8.833v224.9h27.319v22.2h2.939V535.155h10.5V467.013l42.6,14.717v53.425h12.694v81.657h3.07V518.746h85.99v-91.5h141.027V605.3h11.165v39.027h38.929v1.652h22.934v-2.712h4.322V630.557h-4.322V613.08h4.322V602.087h49.614V585.592h38.933V546.56h55.559V449.913h34.8v53.034h21.224V645.983h12.544v-4.808h7.918V552.088h28.108V513.342h78.38v19.634h201.031v18.959h17.551V582.1h-17.551v5.214h60.47V409.966L2754.4,424.68v84.371h59.573v8.972h11.5V344.061h42.6v95.472h25.288V400.41h54.43V659.728H0V400.073H54.43V446.61h58.584V355.116h96.066V521.846H362.452v67.328H469.928v3.359H573.713V579.168h58.149V342.134h22.063V229.146Z" transform="translate(-2511.756 -328.943)" fill="url(#b)"/></g><g transform="translate(941.309 293.533)"><g transform="translate(0 0)"><g transform="translate(104.212 31.4)"><path d="M728.964,1064.586h33.529l4.6-25.516H733.565Z" transform="translate(-728.964 -1039.071)" fill="#163560"/><path d="M725.95,1064.586h33.529l4.6-25.516H730.55Z" transform="translate(-725.413 -1039.071)" fill="#1c468a"/><path d="M801.222,1140.656h7.713l-1.687-16.84h-7.713Z" transform="translate(-783.371 -1108.727)" fill="#163560"/><rect width="10.887" height="0.484" transform="translate(14.089 31.445)" fill="#163560"/></g><g transform="translate(53.849 0)"><path d="M1201.017,1710.014h8.563a20.65,20.65,0,0,0-.683-3.074,8.713,8.713,0,0,0-.485-1.234c-.833-1.662-6.122-.6-6.122-.6a4.073,4.073,0,0,0-.875,2.029A16.977,16.977,0,0,0,1201.017,1710.014Z" transform="translate(-1186.4 -1554.528)" fill="#233862"/><path d="M1289.879,957.077s6.823,1.2,8.366,5.225,10.258,69.084,10.258,69.084-4.316,3.419-13.579,2.192S1289.879,957.077,1289.879,957.077Z" transform="translate(-1259.543 -932.388)" fill="#abddda"/><path d="M1355.093,1690.042a4.642,4.642,0,0,0,.593,2.7h16.937a2.923,2.923,0,0,0-2.563-1.817c-1.976-.32-5.056-1.271-6.854-3.172a5.1,5.1,0,0,1-1.327-2.4c-.8-3.548-6.589,1.087-6.589,1.087A28.672,28.672,0,0,0,1355.093,1690.042Z" transform="translate(-1314.601 -1537.259)" fill="#233862"/><path d="M1264.391,1314.071c-1.893.6-5.511,2.447-7.809,1.58-1.485-.56-9.786-24.574-10.325-35.077a26.832,26.832,0,0,0-.425-3.128c-.491-2.711-1.352-6.436-2.342-10.546-2.657-11.014-6.25-24.791-6.172-29.2.121-6.835,20.37-1.433,20.37-1.433a73.128,73.128,0,0,1,1.67,13.724c.55,16.113,2.062,43.331,6.174,62.232A1.623,1.623,0,0,1,1264.391,1314.071Z" transform="translate(-1216.604 -1163.013)" fill="#233862"/><path d="M1202.3,1242.758l-10.7,77.583s-4.7,1.133-8.357.227c0,0-3.134-41.262-2.873-51.238s-2.249-26.692.573-28.536S1202.3,1242.758,1202.3,1242.758Z" transform="translate(-1168.568 -1168.043)" fill="#2b478b"/><path d="M1179.585,955.321s11.18-7.753,19.248-4.033a13.079,13.079,0,0,1,3.983,2.728c2.917,3.214,8.5,55.42,8.5,55.42s-16.178,5.479-31.736-1.859Z" transform="translate(-1168.568 -927.077)" fill="#2b478b"/><path d="M1298.44,955.979s11.389,4.667,12.931,8.254,9.335,35.891,9.335,38.473-6.78,8.386-8.185,4.221c-1.167-3.459-9.831-32.175-11.906-38.895Z" transform="translate(-1267.465 -931.474)" fill="#2b478b"/><g transform="translate(15.572)"><path d="M1240.69,926.74a12.815,12.815,0,0,1-8.812-1.794,25.333,25.333,0,0,0,1.878-6.633c.01-.079.018-.154.026-.228a6.788,6.788,0,0,0,.031-1.519h6.427s1.757.8,1.757,1.359q0,.446.008.852c.013.739.042,1.384.081,1.939a17.647,17.647,0,0,0,.329,2.653S1243.2,926.247,1240.69,926.74Z" transform="translate(-1227.651 -898.678)" fill="#ffb27d"/><path d="M8.582,3.545A8.978,8.978,0,0,1,.136.562C.046.464,0,.406,0,.406.052.381.1.358.162.335,1.974-.4,6.088.184,8.385,1.026,8.4,1.765,8.544,2.991,8.582,3.545Z" transform="matrix(0.978, 0.208, -0.208, 0.978, 6.618, 18.34)" fill="#e2915a"/><path d="M1.225,11.795c.87,4.683,6.913,4.53,9.525,4.235.735-.082,1.2-.176,1.2-.176.828-.221,1.291-1.527,1.505-3.236.427-3.383-.112-8.35-.683-9.621C11.909,1.086,10.289-.981,4.2.51S.109,5.794,1.225,11.795Z" transform="translate(6.014 4.376) rotate(8)" fill="#ffb27d"/><path d="M17.028,4.237a13.914,13.914,0,0,0-4.2-3.425C9.39-1.049,4.986.871,4.968.879,0,3.064-1.3,6.867,1.334,12.791c2.786,6.264,5.44,5.559,5.44,5.559s-.563-.35-.512-2.3c0-.111.007-.2.012-.283A1.314,1.314,0,0,0,5.86,14.7c-.618-.551-.919-2.218-.4-2.681.624-.56,1.5.12,1.78.643a.764.764,0,0,0,1.091.241c1.547-.978.542-2.934,2.02-4.131s4.478-.192,6.7-1.146C19.948,6.54,17.654,5.1,17.028,4.237Z" transform="translate(2.557 0) rotate(8)" fill="#233862"/></g><path d="M1185.2,1035.343c-.98.251-1.95.46-2.913.618-.853.145-1.7.254-2.551.325a41.435,41.435,0,0,1-15.3-1.879c-1.272-.364-2.587-.779-3.954-1.238-.143-.048.373-14.994.97-30.411.06-1.592.123-3.19.185-4.778.027-.672.052-1.34.079-2.008.541-13.635,1.078-25.947,1.19-26.611.258-1.5.5-2.78.764-3.887.77-3.231,1.727-5,3.812-6.525.2-.154,1.87-.995,3.34-1.727,1.219-.605,2.3-1.134,2.3-1.134h0c.484.237,1.067,1.348,1.674,2.909a104.4,104.4,0,0,1,3.169,10.562.035.035,0,0,1,0,.017v0c.541,2.122.93,3.775,1.04,4.249.187.8.435,2.351.729,4.453.4,2.861.868,6.742,1.369,11.149.051.452.1.911.154,1.373q.088.793.179,1.6c.019.174.037.347.056.522C1181.689,994.67,1185.267,1034.45,1185.2,1035.343Z" transform="translate(-1152.649 -931.565)" fill="#2b478b"/><path d="M1190.207,1085.417c-3.248-.141-18.919-.856-19.206-1.315-.323-.514,6.361-16.23,6.361-16.23-.009.031-1.3,12.715,9.047,14.386,1.082.175-.16,1.544.573,1.694C1187.04,1084.481,1190.146,1084.878,1190.207,1085.417Z" transform="translate(-1161.416 -1024.578)" fill="#233862"/><path d="M1173.67,1180.381l-3.537,2.046c-1.578,1.007-6.514,3.012-13.336,4.854-.716.194-1.457.378-2.219.547.06-1.592.123-3.189.185-4.776a19.929,19.929,0,0,1-2.565-.355c.027-.209.055-.419.083-.628.868-.356,1.73-.7,2.562-1.025.677-.265,1.333-.517,1.954-.751,2.8-1.064,4.88-1.786,4.88-1.786l8.3,2.628Z" transform="translate(-1145.779 -1116.637)" fill="#91cecf"/><path d="M0,.753a1.861,1.861,0,0,0,1.491.716c.855-.1,1.491-.373,1.6-.763S3.25.029,3.25.029A5.659,5.659,0,0,0,0,.753Z" transform="translate(29.294 17.927) rotate(8)" fill="#fff"/><path d="M1270.627,1152.815l2.619-1.224a21.871,21.871,0,0,1,2.5-.7l-.078,1.06-1.929,1.325-2.964,1.521Z" transform="translate(-1244.322 -1093.659)" fill="#ffb27d"/><g transform="translate(29.669 52.543)"><rect width="12.564" height="10.09" transform="matrix(0.974, -0.228, 0.228, 0.974, 0, 2.867)" fill="#ffa561"/><rect width="6.83" height="1.446" transform="translate(0.398 4.566) rotate(-13.191)" fill="#fff"/></g><path d="M1272.254,1164.287s3.132.1,4.893-.077a6.354,6.354,0,0,0,3.908-2.356c.11-.441-.146-1.212-2.165-1.32-1.714-.092-3.787,0-3.787,0l-4.176.962Z" transform="translate(-1244.572 -1101.647)" fill="#ffb27d"/><path d="M1141.864,995.31a20.933,20.933,0,0,1-3.767,1.292.041.041,0,0,0-.018,0,67.977,67.977,0,0,1-13.088,1.463c-.693-.007-1.374-.035-2.034-.086a19.912,19.912,0,0,1-2.565-.355,7.976,7.976,0,0,1-4.1-1.935c-6.99-7.119,3.814-32.669,6.086-35.155,2.652-2.9,7.492-3.92,10.164-4.27l.323-.041c.94-.112,1.542-.135,1.576-.136h0s-.21.673-.561,1.816c-.135.442-.294.955-.468,1.527-1.642,5.376-4.809,15.941-6.205,21.9a15.113,15.113,0,0,0-.661,4.21c.545,2.035,6.192,3.082,9.77,3.544a20.812,20.812,0,0,0,2.647.16C1141.148,988.924,1141.864,995.31,1141.864,995.31Z" transform="translate(-1113.974 -931.567)" fill="#2b478b"/></g><g transform="translate(0 63.329)"><rect width="158.331" height="95.957" transform="translate(5.091 5.426)" fill="#2b2f7f"/><rect width="168.513" height="7.846" fill="#d4d5ff"/><rect width="158.331" height="15.495" transform="translate(5.091 68.9)" fill="#d4d5ff"/></g></g></g><g transform="translate(1109.823 294.717)"><path d="M265.038,998.545s1.563,4.22-.181,5.658-5.9,2.2-4.065,4.032,1.6,6.512-4.369,6.083-13.44,3.627-12.055,5.876,2.532,2.526,2.532,2.526-4.929,1.441-6.265-1.649,0-3.742,0-3.742a3.582,3.582,0,0,1-1.6-3.937c.557-2.783,1.6-3.647,1.6-3.647s-1.691-2.915,0-4.616,3.149,1.474,12.483-9.348C255.654,992.877,263.713,995.459,265.038,998.545Z" transform="translate(-220.108 -993.339)" fill="#1b305a"/><path d="M220.74,1142.507c.267,1.24.659,2.911.91,3.735,2.146,7,5.1,20.625,5.1,22.84s-.837,2.216,0,3.38.448.861,1.263.861,2.7.528,3.241.528.966-3.066-1.039-11.138c-1.784-7.178-3.713-13.707-4.7-21.1C225.139,1141.712,221.944,1142.4,220.74,1142.507Z" transform="translate(-180.13 -1091.934)" fill="#fd5e5a"/><path d="M239.176,1061.2c-2.908-.3-.887,18.722,1.1,28.026a47.059,47.059,0,0,0,5.253-1.487C245.424,1086.806,239.176,1061.2,239.176,1061.2Z" transform="translate(-199.554 -1038.037)" fill="#a80022"/><path d="M209.05,1272.6c-5.968,6.429-34.621-1.035-37.163-3.779s2.338-18.626,8.517-32.481,9.206-13.136,9.206-13.136C200.322,1220.593,215.018,1266.167,209.05,1272.6ZM189.6,1224.909c-.689.125-4.1,4.254-4.1,9.028,0,3.241,7.472,2.968,8.985,1.319,1.223-1.312.966-11.4-4.877-10.347Z" transform="translate(-142.516 -1146.551)" fill="#3a3e98"/><path d="M189.645,1272.455c2.16-2.657.659-10.528-.073-14-2.028-9.289-10.805-36.781-19.368-35.4C181.527,1219.673,196.434,1265.785,189.645,1272.455Z" transform="translate(-123.112 -1146.409)" fill="#d5f1f1"/><path d="M240.31,1314.959a49.325,49.325,0,0,1,13.331-2.681c-.066-.234-.125-.471-.185-.709a50.029,50.029,0,0,0-12.915,2.559C240.465,1314.406,240.389,1314.679,240.31,1314.959Z" transform="translate(-208.516 -1205.854)" fill="#1b94ff"/><path d="M209.577,1272.193s4.059-5.038,8.375,2.278.439,19.1,8.612,23.044,1.418,8.866,1.418,8.866l-20.3-1.8-5.9-4.583Z" transform="translate(-172.777 -1178.328)" fill="#454aa0" opacity="0.1"/><path d="M202.146,1260c-.445,1.438.659,32.748,2.895,30.334S202.146,1260,202.146,1260Z" transform="translate(-147.866 -1171.288)" fill="#a9abdf"/><path d="M185.531,1263.26c0,2.4,5.866,34.671,7.1,30.951S185.531,1263.26,185.531,1263.26Z" transform="translate(-129.572 -1173.473)" fill="#a9abdf"/><path d="M211.73,1270.688c-6.347,3.387-34.008,4.455-36.636-3.607-2.061-6.321,8.985-34.8,16.4-43.771l-.208.043s-3.027-.719-9.206,13.136-10.584,29.917-9.6,33.652c1.866,7.105,32.283,9.038,38.248,2.608a4.765,4.765,0,0,0,1.006-2.061Z" transform="translate(-144.194 -1146.696)" fill="#05356b"/><path d="M234.166,1226.735s-.626-2.684.237-3.195.613,2.779.491,2.908A2.63,2.63,0,0,1,234.166,1226.735Z" transform="translate(-187.801 -1146.814)" fill="#fd5e5a"/><path d="M230.008,1225.538c.237-.254-.989-4.708-1.56-4.708s.33,4.708.33,4.708Z" transform="translate(-180.94 -1145.033)" fill="#fd5e5a"/><path d="M225.964,1227.16l-1.111-1.019s-.168-4.771.557-4.771S225.964,1227.16,225.964,1227.16Z" transform="translate(-175.755 -1145.396)" fill="#fd5e5a"/><path d="M219.144,1222.07a10.3,10.3,0,0,1,1.151,4.059c-.112,1.589-.966,2.1-1.151,1.23s-.435-4.616-.435-4.616Z" transform="translate(-168.055 -1145.865)" fill="#fd5e5a"/><path d="M190.01,1421.979a31.4,31.4,0,0,1,5.975-1.649c1.566,5.183,3.01,9.747,3.65,11.663s1.164,3.627,1.649,5.14l-3.861.95a17.612,17.612,0,0,1-1.025-3.261C196.093,1433.08,193.09,1427.591,190.01,1421.979Z" transform="translate(-139.574 -1278.754)" fill="#fc7575"/><path d="M185.011,1450a2.034,2.034,0,0,0-.841,2.6c.679,1.787,3.716,3.155,3.716,3.155l1.319-2.328a3.989,3.989,0,0,1-3.04-1.668A7.179,7.179,0,0,0,185.011,1450Z" transform="translate(-125.511 -1298.641)" fill="#e0002f"/><path d="M196.472,1452.866a2.969,2.969,0,0,0,.155.33,2.911,2.911,0,0,1-.3-.564,2.034,2.034,0,0,1,.841-2.6,1.063,1.063,0,0,1,.185.218A2.064,2.064,0,0,0,196.472,1452.866Z" transform="translate(-137.671 -1298.661)" fill="#fff"/><path d="M163.737,1467.126l4.188-2.084c1.724-.857,4.57-2,5.434-2.43s3.043-4.174,2.532-4.787-3.268.989-5.091.907-5.213-.755-5.82-.686c-.95.106-2.7,2-2.967,2.78S163.1,1466.869,163.737,1467.126Z" transform="translate(-105.015 -1303.792)" fill="#e0002f"/><path d="M164.7,1468c6.377-4.59,5.381-1.355,11.24-6.726-1.319,1.527-3.446,3.442-5.342,3.937a16.812,16.812,0,0,0-3,1.249C166.609,1466.932,165.663,1467.462,164.7,1468Z" transform="translate(-105.886 -1306.195)" fill="#f2869d"/><path d="M182.076,1462.822a.277.277,0,0,0,.386-.151,16.813,16.813,0,0,1,1.411-2.6l-.659-.122a18,18,0,0,0-1.3,2.45A.33.33,0,0,0,182.076,1462.822Z" transform="translate(-119.486 -1305.31)" fill="#fff"/><path d="M187.9,1460.935a.3.3,0,0,0,.33-.29,8.355,8.355,0,0,1,.4-1.87l-.584-.115a8.69,8.69,0,0,0-.4,1.932A.33.33,0,0,0,187.9,1460.935Z" transform="translate(-126.142 -1304.446)" fill="#fff"/><path d="M316.958,1412.6a31.589,31.589,0,0,1,5.991,1.579c-.89,5.368-1.612,10.123-1.886,12.141s-.554,3.775-.8,5.365l-3.818-1.124a15.906,15.906,0,0,1,.521-3.4C317.416,1425.465,317.218,1419.112,316.958,1412.6Z" transform="translate(-302.926 -1273.573)" fill="#fd5e5a"/><path d="M316.592,1448.328a1.87,1.87,0,0,0-1.916,1.827c-.218,1.919,1.81,4.712,1.81,4.712l2.2-1.342a4.421,4.421,0,0,1-1.9-3.06A8.344,8.344,0,0,0,316.592,1448.328Z" transform="translate(-298.073 -1296.469)" fill="#e0002f"/><path d="M320.824,1450.415a2.266,2.266,0,0,0-.017.369,3.065,3.065,0,0,1,0-.659,1.87,1.87,0,0,1,1.916-1.827,1.545,1.545,0,0,1,.063.287A1.9,1.9,0,0,0,320.824,1450.415Z" transform="translate(-304.198 -1296.658)" fill="#fff"/><path d="M294.342,1463.936l4.616.29c1.9.119,4.906.557,5.853.617s4.511-2.133,4.329-2.935-3.3-.8-4.883-1.79-4.27-3.3-4.834-3.561c-.884-.389-3.254.392-3.828.949S293.9,1463.389,294.342,1463.936Z" transform="translate(-281.804 -1301.509)" fill="#a80024"/><path d="M297.86,1474.741c7.63-.808,5.338,1.536,12.859-.221-1.84.659-4.544,1.282-6.433.758a16.116,16.116,0,0,0-3.185-.432C300.023,1474.777,298.941,1474.757,297.86,1474.741Z" transform="translate(-284.57 -1313.62)" fill="#ec496b"/><path d="M312.671,1465.575a.277.277,0,0,0,.409.063,15.17,15.17,0,0,1,2.381-1.576l-.514-.432a16.438,16.438,0,0,0-2.216,1.5A.33.33,0,0,0,312.671,1465.575Z" transform="translate(-294.175 -1306.598)" fill="#fff"/><path d="M317.285,1461.582a.28.28,0,0,0,.4-.1,7.921,7.921,0,0,1,1.17-1.447c-.158-.139-.33-.274-.468-.4a8.11,8.11,0,0,0-1.19,1.5A.33.33,0,0,0,317.285,1461.582Z" transform="translate(-299.07 -1305.103)" fill="#fff"/><path d="M322.431,1414.179a31.589,31.589,0,0,0-5.991-1.579c.1,2.45.195,4.884.251,7.05a16.016,16.016,0,0,1,4.758.64C321.735,1418.449,322.068,1416.359,322.431,1414.179Z" transform="translate(-302.409 -1273.573)" fill="#dd0202"/><path d="M276.679,1214,265.8,1256.574s-5.276,18.2-4.975,28.214l8.144,1.853s5.4-22.487,7.709-27.895l9.628-32.718Z" transform="translate(-247.939 -1140.456)" fill="#47496e"/><path d="M211.185,1420.33a31.4,31.4,0,0,0-5.975,1.649q.544.989,1.085,1.978c1.5-.834,3.663-2,5.177-2.681Z" transform="translate(-154.774 -1278.754)" fill="#fd5e5a"/><path d="M228.136,1218.177c-.828-2.486-7.4-22.052-10.09-33.028l-.837-3.412,3.845-14.178-11.834-2.638-6.664,13.654a8.091,8.091,0,0,0-.106,6.812c4.382,9.737,16.569,37.1,16.565,40.226,0,3.828,1.2,6.631,1.757,11.932a43.059,43.059,0,0,0,5,14.314,75.486,75.486,0,0,1,9.14-2.925C230.559,1240.809,229.273,1221.606,228.136,1218.177Z" transform="translate(-177.07 -1107.558)" fill="#9960c6"/><path d="M217.694,1420.68a.257.257,0,0,1-.244-.185s-.119-.353-.33-1.084a.287.287,0,0,1,.171-.353.263.263,0,0,1,.33.188c.2.715.33,1.055.33,1.058a.283.283,0,0,1-.158.359A.21.21,0,0,1,217.694,1420.68Z" transform="translate(-165.194 -1277.894)" fill="#6b3f96"/><path d="M213.4,1265.922c-.989-7.254-.363-4.221-6.773-23.875-1.6-4.969-3.409-10.617-4.877-15.777,1.029,4.9,2.8,11.211,4.23,16.008,4.639,15.8,5.259,15.385,5.981,19.684,1.121,6.73,2.638,21.1,6.651,28.119C215.7,1283.642,214.467,1273.961,213.4,1265.922Z" transform="translate(-160.774 -1148.68)" fill="#b473f2"/><path d="M254.089,1060.337s-2.262-1.137-11.464.29c-.468.073-1.115,11.6-1.115,11.6s4.7,19.559,3.838,24.4c0,0,6.031,6.479,13.848,2.308,0,0-1.833-16.941-1.134-20.334s2.113-6.472.082-9.984A90.656,90.656,0,0,1,254.089,1060.337Z" transform="translate(-214.467 -1037.171)" fill="#ebba56"/><path d="M273.52,1124.406c-6.789-3.221-2.351-9.991-3-12.918-.735-3.3-2.173-2.968-1.388-5.605s1.543-5.012-2.489-7.32a37.823,37.823,0,0,1-3.716-2.513,2.719,2.719,0,0,1-.023.4s4.7,19.559,3.838,24.4A13.085,13.085,0,0,0,273.52,1124.406Z" transform="translate(-235.845 -1061.397)" fill="#e7a329" opacity="0.6"/><path d="M244.672,1079.625c.29-1.79,1.385-4.524,1.035-7.211-.366-2.546-.758-1.946-5.434-11.175,3.241,8.88,5.315,9.081,4.58,13.647-.613,3.841-1.213,3.228-1.184,7.452a140.716,140.716,0,0,0,1.718,17.475c-.412-8.055-1.131-16.849-.762-19.918Z" transform="translate(-200.639 -1038.064)" fill="#f45380"/><path d="M294.419,1282.647c-5.968,6.43-34.621-1.035-37.163-3.779s2.338-18.626,8.517-32.481,9.209-13.136,9.209-13.136C285.694,1230.643,300.387,1276.217,294.419,1282.647Zm-19.437-47.688c-.692.128-4.1,4.253-4.1,9.031,0,3.238,7.472,2.968,8.985,1.319C281.078,1244,280.818,1233.907,274.982,1234.959Z" transform="translate(-256.034 -1153.287)" fill="#3a3e98"/><path d="M275.008,1282.5c2.16-2.657.66-10.528-.073-14-2.028-9.288-10.805-36.781-19.365-35.4C266.907,1229.723,281.8,1275.818,275.008,1282.5Z" transform="translate(-236.623 -1153.145)" fill="#d5f1f1"/><path d="M287.516,1270c-.445,1.437.659,32.748,2.895,30.334S287.516,1270,287.516,1270Z" transform="translate(-261.383 -1177.992)" fill="#a9abdf" opacity="0.54"/><path d="M270.889,1273.31c0,2.4,5.866,34.671,7.105,30.951S270.889,1273.31,270.889,1273.31Z" transform="translate(-243.079 -1180.21)" fill="#a9abdf" opacity="0.54"/><path d="M294.939,1282.243s4.056-5.038,8.375,2.278.435,19.1,8.612,23.047,1.414,8.863,1.414,8.863l-20.294-1.8-5.9-4.583Z" transform="translate(-286.285 -1185.064)" fill="#a9abdf" opacity="0.1"/><path d="M309.27,1137.668a35.889,35.889,0,0,1,4.616,3.508,3.363,3.363,0,0,1,.129-.419,5.562,5.562,0,0,1,1.062-1.553q-2.358-1.826-4.616-3.825A25.065,25.065,0,0,0,309.27,1137.668Z" transform="translate(-292.69 -1087.758)" fill="#fd5e5a"/><path d="M297.1,1280.648c-6.347,3.383-34.008,4.451-36.636-3.627-2.061-6.317,8.985-34.8,16.4-43.771l-.2.043s-3.03-.719-9.209,13.136-10.584,29.916-9.6,33.652c1.863,7.105,32.28,9.038,38.248,2.608A4.694,4.694,0,0,0,297.1,1280.648Z" transform="translate(-257.71 -1153.359)" fill="#05356b"/><path d="M316.14,1139.225q-2.358-1.831-4.616-3.825a13.578,13.578,0,0,0-2.186,5.8c-.63,4.286,2.018,21.673,1.039,23.513s.109,6.189.722,6.219,1.055.28,1.629.307a1.606,1.606,0,0,0,1.319-.561c.448-.419,1.513.073,1.54-.557s-1.243-4.544-1.223-5.048-.587-20.924.7-24.3A5.557,5.557,0,0,1,316.14,1139.225Z" transform="translate(-293.744 -1087.772)" fill="#fc7575"/><path d="M295.756,1068.542c-.1-5.453-3.719-6.452-3.719-6.452-2.061-.1-8.161,16.832-11.59,24.808a29.731,29.731,0,0,0,5.816,3.809C289.676,1086.861,295.842,1073.27,295.756,1068.542Z" transform="translate(-263.867 -1038.633)" fill="#ebba56"/><path d="M258.791,1032.583c.073-.373.1-1.171.162-2.173l3.828,6.018c-.864-.191-3.587,4.161-3.693,5.681s1.349,4.089,1.349,4.089-2.7-1.022-3.7-2.664a11.344,11.344,0,0,0-2.733-2.875S258.425,1034.482,258.791,1032.583Z" transform="translate(-222.17 -1017.399)" fill="#fc7575"/><path d="M254.082,1030.37l3.828,6.031c-.221-.05-.57.2-.963.633A9.054,9.054,0,0,1,254,1031.58C254.03,1031.237,254.053,1030.822,254.082,1030.37Z" transform="translate(-217.3 -1017.373)" fill="#f71900" opacity="0.44"/><path d="M245.308,1004.144a9.021,9.021,0,0,1,.853,4.17c-.035,2.565-1.159,11.663-3.52,10.9a7.395,7.395,0,0,1-6.034-7.185C236.33,1007.893,238,1000.114,245.308,1004.144Z" transform="translate(-199.881 -999.04)" fill="#fc7575"/><path d="M260.911,997.588c-.211.58-8.045-.864-7.732,5s2.325,12.774-3.871,11.54-1.556,4.026-1.939,5.048c-1.626,4.369-13.519-.775-10.3-9.3,1.368-3.627,3.376-2.872,1.2-5.219s-.58-6.133,2.054-5.213,6.595-12.424,16.631-7.336C259.625,993.46,261.953,994.739,260.911,997.588Z" transform="translate(-214.791 -990.951)" fill="#233862"/><path d="M0,.67s.484,1.048,2.388.561A8.822,8.822,0,0,0,2.088,0,7.2,7.2,0,0,0,0,.67Z" transform="matrix(0.883, 0.469, -0.469, 0.883, 43.542, 15.008)" fill="#fff"/></g><g transform="translate(800.296 294.717)"><g transform="translate(0)"><path d="M2099.629,2174.5h-14.611a.914.914,0,0,1-.147-.049c-.41-.2-.607-.963-.691-1.873a23.708,23.708,0,0,1,.067-3.751s4.98-4.159,5.742-1.071,4.905,4.4,7.257,4.727C2099.439,2172.788,2099.618,2174.3,2099.629,2174.5Z" transform="translate(-2069.867 -2010.971)" fill="#545454"/><path d="M2008.277,2174.5h-15.4c-.975-.875-.473-5.674-.473-5.674s4.98-4.159,5.741-1.071,4.907,4.4,7.257,4.727a4.157,4.157,0,0,1,.49.1A3.53,3.53,0,0,1,2008.277,2174.5Z" transform="translate(-1991.579 -2010.971)" fill="#545454"/><path d="M2040.87,1653.75s.011.557.031,1.561c.148,6.468.693,31.475,1.218,45.418.022.508.04,1,.059,1.477.01.252.021.507.031.756a150.635,150.635,0,0,0,2.151,18.619c1.182,6.732,2.375,11.317,2.375,11.317a11.133,11.133,0,0,0,7.4-.8s1.21-10.448,1.67-16.771c.148-2.051.887-9.052,1.818-17.569.719-6.586,1.551-14.079,2.315-20.894.039-.362.078-.725.121-1.084,1.232-11.017,2.251-19.99,2.251-19.99l-7.939-.756Z" transform="translate(-2032.998 -1573.857)" fill="#2b478b"/><path d="M2044.549,1729l13.265-23.821c.719-6.586,1.551-14.079,2.314-20.893.04-.362.079-.725.121-1.084,1.232-11.017,2.251-19.99,2.251-19.99l-7.939-.756-13.471.276Z" transform="translate(-2033.185 -1581.281)" fill="#233862"/><path d="M2015.417,1655.25s-7.422,36.69-13.471,54.4-6.122,22.627-6.122,22.627-5.551,1.2-7.995-.193c0,0-1.4-33.569,2.263-42.484,2.421-5.9,4.271-18.446,3.642-22.967s-1.217-13.589-1.217-13.589Z" transform="translate(-1987.567 -1573.252)" fill="#2b478b"/><path d="M2067.482,1241.728l-8.252-2.327a32.975,32.975,0,0,0,1.888-7,10.5,10.5,0,0,0-.431-5.527c-.043-.093-.089-.188-.136-.278-.314-.591-.125-.857.3-.923a4.72,4.72,0,0,1,2.788.886l.058.048a61.629,61.629,0,0,0,5.747,3.227h.01a.459.459,0,0,0,.016.1h0v.033c.025.173.073.495.121.937C2069.831,1233.1,2070.021,1238.22,2067.482,1241.728Z" transform="translate(-2048.646 -1208.99)" fill="#d9935c"/><path d="M2022.45,1368.147c1.755,1.241,4.518,1.69,7.563,1.642a41.354,41.354,0,0,0,10.635-1.732,24.44,24.44,0,0,0,4.209-1.625c4.7-2.452,4.032-5.715,3.92-17.927-.114-12.463-7.784-28.574-9.167-31.271-2.458-4.8-13.488-3.029-13.488-3.029-2.42,1.159-3.279,5.022-3.516,10.077-.261,5.613.247,12.686.247,19.136a72.949,72.949,0,0,1-1.739,13.961C2020.168,1362.464,2019.681,1366.189,2022.45,1368.147Z" transform="translate(-2015.525 -1284.19)" fill="#e2923d"/><path d="M2025.44,1377.21c2.123,4.473,6.3,9.506,8.895,12.407a41.364,41.364,0,0,0,10.634-1.733c1.33-3.168,1.9-8.459.681-17.192-.933-6.659-7.731-33.441-7.731-33.441-5.489-.715-8.9,2.275-10.99,6.865-.261,5.612.246,12.686.246,19.136A72.651,72.651,0,0,1,2025.44,1377.21Z" transform="translate(-2019.846 -1304.016)" fill="#d88029"/><path d="M2046.189,1344.934s1.068,15.234,1.054,21.536,5,23.065,5,23.065a34.733,34.733,0,0,0,4.62.1,5.339,5.339,0,0,0,2.4-.886s-1.1-19.805,1-27.4,2.216-22.838,2.216-22.838-1.167-3.291-8.155-2.252C2046.028,1337.5,2046.189,1344.934,2046.189,1344.934Z" transform="translate(-2037.53 -1303.088)" fill="#e2923d"/><path d="M2060.571,1268.64s-1.88,5.945-1.509,7.008c0,0,10.2,1.373,14.342,5.409,0,0-1.344-5.795-3-7.238S2060.571,1268.64,2060.571,1268.64Z" transform="translate(-2048.461 -1245.628)" fill="#d88029"/><path d="M2078,1230.072c-.926,0-6.692.012-8.311,1.382a1.062,1.062,0,0,1-.165.116,10.5,10.5,0,0,0-.431-5.527c.058-.464-.068-.967.161-1.2.515-.523,2.124.352,2.788.886l.058.047a61.56,61.56,0,0,0,5.747,3.228l.024.1h0v.033C2077.9,1229.307,2077.95,1229.631,2078,1230.072Z" transform="translate(-2057.049 -1208.162)" fill="#cb8757"/><path d="M2086.87,1167.776s-9.537,1.826-10.583-4.135-2.981-9.733,3.065-11.152,7.63.649,8.464,2.551S2089.324,1167.148,2086.87,1167.776Z" transform="translate(-2062.208 -1146.231)" fill="#d9935c"/><path d="M2045.292,1132.837s.5-.377-1.434-3.3-2.847-2.124-2.871-5.242-1.182-4.991,2.435-7.022,3.043-3.911,5.214-4.36,5.329,1.338,7.193.962,7.7,7.221,3.961,9.019a5.927,5.927,0,0,1-2.954-.665c-1.217-.752-5.7-1.512-6.219-.148S2047.255,1131.787,2045.292,1132.837Z" transform="translate(-2032.93 -1112.836)" fill="#233862"/></g><g transform="translate(12.14 89.925)"><rect width="2.174" height="36.959" transform="translate(41.685 23.809)" fill="#959bbe"/><rect width="0.968" height="6.679" transform="matrix(-0.661, -0.751, 0.751, -0.661, 41.843, 44.152)" fill="#4b4e5f"/><rect width="0.967" height="6.447" transform="matrix(-0.688, -0.726, 0.726, -0.688, 50.287, 45.836)" fill="#4b4e5f"/><path d="M1326.66,1490.78a3.24,3.24,0,1,0,3.24-3.24A3.24,3.24,0,0,0,1326.66,1490.78Z" transform="translate(-1300.408 -1420.416)" fill="#515259"/><path d="M1221.58,1490.78a3.238,3.238,0,1,0,.948-2.292A3.239,3.239,0,0,0,1221.58,1490.78Z" transform="translate(-1171.303 -1420.416)" fill="#515259"/><path d="M1210.82,1465.732a3.24,3.24,0,1,0,3.24-3.242,3.239,3.239,0,0,0-3.24,3.242Z" transform="translate(-1158.083 -1401.093)" fill="#515259"/><path d="M1301.661,1465.732a3.24,3.24,0,1,0,3.24-3.242,3.239,3.239,0,0,0-3.24,3.242Z" transform="translate(-1269.692 -1401.093)" fill="#515259"/><path d="M1337.674,1391.427a.694.694,0,0,0,.178-.025.645.645,0,0,0,.444-.8l-5.944-20.851a.647.647,0,0,0-.8-.443c-.343.1-.515,1.052-.419,1.395l5.924,20.255A.649.649,0,0,0,1337.674,1391.427Z" transform="translate(-1306.607 -1329.198)" fill="#aaafcb"/><ellipse cx="2.298" cy="2.298" rx="2.298" ry="2.298" transform="matrix(-0.163, -0.987, 0.987, -0.163, 33.314, 67.288)" fill="#252730"/><path d="M1309.458,1466.74h.727a.871.871,0,0,0,.816-.75l.64-3.29h-3.521l.514,3.251A.876.876,0,0,0,1309.458,1466.74Z" transform="translate(-1274.671 -1401.255)" fill="#aaafcb"/><path d="M1313,1473.963a.645.645,0,1,0,.644-.642A.644.644,0,0,0,1313,1473.963Z" transform="translate(-1278.435 -1409.447)" fill="#bfc3d8"/><ellipse cx="2.298" cy="2.298" rx="2.298" ry="2.298" transform="translate(54.085 67.269) rotate(-99.32)" fill="#252730"/><path d="M1218.628,1466.74h.727a.871.871,0,0,0,.816-.75l.64-3.29h-3.521l.515,3.251A.876.876,0,0,0,1218.628,1466.74Z" transform="translate(-1163.074 -1401.255)" fill="#aaafcb"/><path d="M1222.17,1473.963a.645.645,0,1,0,.645-.642A.645.645,0,0,0,1222.17,1473.963Z" transform="translate(-1166.838 -1409.447)" fill="#bfc3d8"/><path d="M1225.8,1494a2.286,2.286,0,1,0,2.286-2.286A2.286,2.286,0,0,0,1225.8,1494Z" transform="translate(-1174.581 -1423.633)" fill="#252730"/><path d="M1224.279,1251.727l-1.68,18.364a5.435,5.435,0,0,1-4.2,4.591l-.254.032-.044.037a6.381,6.381,0,0,1-1.28.13h-36.124l-8.752-29.3.723-.516,51.182,6.189Zm-13.011,6.457,7.6.295.508-7.069-8.11-.979Zm-10.245.295-7.668-.3.937,7.673,7.067.105Zm-8.459-.329-8.254-.323,1.706,7.9,7.488.112Zm-.457-10.035,1.143,9.374,7.721.3-.388-8.64Zm-10.165-1.228,2.209,10.238,8.318.324-1.143-9.429Zm-5.817,9.925,7.229.281-2.224-10.3-8.242-1Zm2.643,8.811,6.472.1-1.71-7.922-7.183-.281Zm8.3,8.565-1.674-7.774-6.422-.1,2.33,7.865Zm7.474,0-.933-7.646-7.424-.112,1.671,7.758Zm7.2,0-.338-7.529-7.012-.105.933,7.635Zm8.764-7.392-8.327-.126.339,7.518h7.988Zm0-7.945-8.688-.34.334,7.462,8.359.124Zm0-8.512-9.111-1.1.386,8.576,8.725.343Zm7.773,16.572-6.994-.1v7.381h5.549a5.209,5.209,0,0,0,.708-.048l.208-.025Zm.56-7.734-7.545-.293v7.227l7.044.105Zm3.285,7.792-3.072-.046-.284,3.949c-.089,1.214-.153,2.058-.215,2.671l-.039.4.4-.167a4.583,4.583,0,0,0,2.924-3.738Zm.686-7.636-3.214-.126-.505,7.021,3.087.046Zm.686-7.422-3.34-.4-.505,7.005,3.228.128Z" transform="translate(-1156.173 -1233.375)" fill="#bbbfd5"/><rect width="0.969" height="6.9" transform="translate(20.139 46.3) rotate(-135.47)" fill="#aaafcb"/><rect width="0.967" height="6.784" transform="matrix(-0.69, -0.724, 0.724, -0.69, 17.866, 36.726)" fill="#aaafcb"/><rect width="0.967" height="6.896" transform="translate(15.125 26.992) rotate(-133.51)" fill="#aaafcb"/><path d="M1393.232,1247.241l6.8-1.589-.325-.592-7.074,1.415Z" transform="translate(-1382.38 -1233.375)" fill="#aaafcb"/><rect width="0.967" height="7.014" transform="translate(26.586 46.314) rotate(-134.53)" fill="#4b4e5f"/><path d="M1221.275,1284.589a10.892,10.892,0,1,1-18.435,7.856A10.908,10.908,0,0,1,1221.275,1284.589Z" transform="translate(-1163.577 -1261.518)" fill="#2a8001"/><path d="M1225.052,1293.063c-.341.588-2.723-.786-2.382-1.372C1222.812,1291.442,1225.39,1292.473,1225.052,1293.063Z" transform="translate(-1168.567 -1269.316)" fill="#5b2e10"/><path d="M1220.85,1268.444c.718,2.074,1.349,5.529-.869,5.611v.1c2.458.256,2.383-3.578,1.919-6Z" transform="translate(-1165.033 -1251.194)" fill="#3f2310"/><path d="M1221.782,1300.75c1.52,11.185-2.058,14.248-8.341,15.723C1222.23,1317.144,1225.364,1308.353,1221.782,1300.75Z" transform="translate(-1164.618 -1276.333)" fill="#39b54a"/><path d="M1253.62,1287.85c-10.021,5.194-10.469,9.884-8.059,15.869C1239.961,1296.918,1245.334,1289.3,1253.62,1287.85Z" transform="translate(-1201.82 -1266.382)" fill="#39b54a"/><path d="M1239.151,1299s-3.029,12.8-9.221,14.724Z" transform="translate(-1184.303 -1274.982)" fill="#39b54a"/><path d="M1288.747,1304.78h7.932v18.428h-8.508Z" transform="translate(-1255.146 -1279.441)" fill="#fff7cf"/><path d="M1322.86,1308.879l2.3,1.532.576-18.428-.576-3.793-1.493,4.289Z" transform="translate(-1292.134 -1266.644)" fill="#5db9f4"/><path d="M1295.585,1288.19h-7.415l.576,3.793h7.932Z" transform="translate(-1255.146 -1266.644)" fill="#9cd4f8"/><path d="M1292.95,1281.66l.286,1.493h7.415v-1.493Z" transform="translate(-1260.211 -1261.607)" fill="#5db9f4"/><rect width="0.969" height="6.9" transform="translate(34.333 46.302) rotate(-135.47)" fill="#4b4e5f"/><path d="M1279.871,1302.825s12.406-1.9,12.829-1.9-.809,1.859,1.077,2.89,13.091,8.848,13.622,12.547-2.972,5.6-2.972,5.6l-18.611-.211Z" transform="translate(-1264.024 -1276.464)" fill="#fb8603"/><path d="M1304.229,1321.27l-12.319,3.224,5.762,9.413,15.49-5.023Z" transform="translate(-1272.485 -1292.161)" fill="#e3f6f0"/><path d="M1312.959,1371.145s2.256-1.411,2.856-.247-.284,2.819-.284,2.819.764-2.364-.176-2.785A3.648,3.648,0,0,0,1312.959,1371.145Z" transform="translate(-1280.158 -1330.087)" fill="#f57408"/><path d="M1346.3,1378.708s1.774-1.9,3.43-1.393a1.757,1.757,0,0,1,1.132,2.238s-.117-2.186-1.633-1.939A9.5,9.5,0,0,0,1346.3,1378.708Z" transform="translate(-1322.694 -1335.325)" fill="#f57408"/><path d="M1292.522,1368s-3.489,1.516-3.137,3.279,3.455.741,3.455.741-3.887.425-2.972-1.518A4.962,4.962,0,0,1,1292.522,1368Z" transform="translate(-1251.58 -1328.207)" fill="#f57408"/><path d="M1276.088,1348.56c.635-.293.915-.8.416-1.326a1.7,1.7,0,0,0-2.54.306,2.181,2.181,0,0,0,.043,2.211,2.264,2.264,0,0,0,.786.8,2.173,2.173,0,0,0,1.024.339l-.082.375a3.031,3.031,0,0,1-1.962-1.4,2.654,2.654,0,0,1-.087-2.515,2.063,2.063,0,0,1,3.413-.121,1.325,1.325,0,0,1-.78,1.861Z" transform="translate(-1232.359 -1311.533)" fill="#2a420f"/><path d="M1234.408,1355.316c0-1.738-1.829-3.146-4.067-3.146a4.257,4.257,0,0,0-3.69,1.829c-3.356.146-5.944,1.086-5.944,2.227,0,.533.526.914.942,1.143a8.291,8.291,0,0,0,2.515.814,27.808,27.808,0,0,0,3.224.4,21.15,21.15,0,0,0,3.139.036,5.765,5.765,0,0,0,2.378-.686,2.911,2.911,0,0,0,1.338-1.52A3.2,3.2,0,0,0,1234.408,1355.316Z" transform="translate(-1177.453 -1315.996)" fill="#6e287f"/><path d="M1234.245,1365.049a2.9,2.9,0,0,1-1.338,1.518,5.729,5.729,0,0,1-2.378.686,21.17,21.17,0,0,1-3.139-.036,27.705,27.705,0,0,1-3.224-.4,8.3,8.3,0,0,1-2.515-.814,2.107,2.107,0,0,1-.839-.739.841.841,0,0,0-.1.391c0,.532.526.914.942,1.143a8.3,8.3,0,0,0,2.515.814,27.784,27.784,0,0,0,3.224.4,21.153,21.153,0,0,0,3.139.037,5.761,5.761,0,0,0,2.378-.686,2.91,2.91,0,0,0,1.338-1.521,3.211,3.211,0,0,0,.178-1.088,2.252,2.252,0,0,0-.028-.354A2.917,2.917,0,0,1,1234.245,1365.049Z" transform="translate(-1177.467 -1325.43)" fill="#4e1a5b"/><path d="M1228.586,1359.408s4.623-.382,5.067-.539.331-1.178,2.057-1.53,2.776.229,2.973,1.143-1.015,1.653-1.461,1.04-.576-1.315-1.58-1.187a3.241,3.241,0,0,0-1.763.993Z" transform="translate(-1183.549 -1319.903)" fill="#7c3b7f"/><path d="M1273.691,1362.823l-.489.252.391.347-.535.174.519.359h.016l-.581.332.457.393-.578.263.078.377a2.133,2.133,0,0,1-1.893-1.447,1.873,1.873,0,0,1-.018-.457c.153-1.551,2.657-1.5,2.657-1.5l-.384.245.251.08-.306.251Z" transform="translate(-1228.267 -1323.516)" fill="#375618"/><path d="M1274.009,1369.734l-.578.263.078.377a2.133,2.133,0,0,1-1.893-1.447,1.875,1.875,0,0,1-.018-.457,2.878,2.878,0,0,0,.59.892c.576.578.914.569.914.569v-.279l.474.016-.4-.432.931-.247h.016l-.581.331Z" transform="translate(-1228.796 -1328.569)" fill="#2c4411"/><path d="M1273.39,1364.429a1.523,1.523,0,0,1,.969-.64c.686-.149.784-.046.784-.046l-.352.229.213.194-.268.185.307.213A3.736,3.736,0,0,0,1273.39,1364.429Z" transform="translate(-1230.233 -1324.896)" fill="#42601f"/><path d="M1224.993,1368.248c0,1.813-1.385,4.278-3.091,4.278s-3.091-2.465-3.091-4.278,1.372-1.868,3.091-1.868S1224.993,1366.435,1224.993,1368.248Z" transform="translate(-1167.603 -1326.957)" fill="#3c6d0b"/><path d="M1223.058,1364.613a2.337,2.337,0,0,1,.423-1.893,1.53,1.53,0,0,1,.144-.13,4.855,4.855,0,0,1,3.064-.162,2.068,2.068,0,0,1,.723,1.571c0,.229-.341,5.561-2.126,5.346C1223.575,1369.136,1223.214,1366.129,1223.058,1364.613Z" transform="translate(-1170.987 -1323.775)" fill="#356604"/><path d="M1231.3,1349.357a2.452,2.452,0,0,0-.686.647,1.169,1.169,0,0,0-.16,1.109,4.836,4.836,0,0,1,.069,2.1l-.082-.012c.19-1.994-1.123-2.449.055-3.91a2.976,2.976,0,0,1,.409-.425Z" transform="translate(-1176.47 -1313.451)" fill="#2c4411"/><path d="M1228.094,1364.3c0,2.1-.8,4.952-1.786,4.952s-1.788-2.853-1.788-4.952.8-2.165,1.788-2.165S1228.094,1362.2,1228.094,1364.3Z" transform="translate(-1172.009 -1323.679)" fill="#549023"/><path d="M1228.412,1365.455c0,1.109-.48,2.007-1.075,2.007s-1.077-.9-1.077-2.007.482-2,1.077-2S1228.412,1364.349,1228.412,1365.455Z" transform="translate(-1172.725 -1324.698)" fill="#649b2f"/><path d="M1237.274,1331.5l.1,1.216.041.542a14.422,14.422,0,0,0,.229,1.7c.489,2.449,1.559,4.1,2.778,4.1h12.694c.725,0,1.351-1.143,1.509-2.78l.855-8.7c.018-.187.03-.37.034-.551.059-2.014-.636-3.8-1.546-3.8h-13.682C1238.378,1323.23,1236.938,1327.19,1237.274,1331.5Z" transform="translate(-1202.333 -1293.673)" fill="#3b9edb"/><path d="M1267.34,1366.45h4.285v-3.67h-.949l-.547,2.433-.331-2.433h-2.458Z" transform="translate(-1225.331 -1324.18)" fill="#e81515"/><rect width="10.867" height="1.493" transform="translate(37.165 42.972)" fill="#e56f17"/><rect width="2.956" height="2.879" transform="translate(47.65 32.196)" fill="#a1dd3a"/><path d="M1250.43,1344.659c2.451-2.478,7.988-2.087,11.432,1.459l.032.265c-.871-.089-9.509-.951-11.432-1.459Z" transform="translate(-1211.733 -1308.981)" fill="#eded45"/><path d="M1237.3,1331.5l.1,1.216c4.646-2.016,6.015-3.774,13.1-5.411a14.16,14.16,0,0,1,5.03-.279c.06-2.014-.635-3.8-1.545-3.8h-13.682C1238.407,1323.23,1236.967,1327.19,1237.3,1331.5Z" transform="translate(-1202.363 -1293.673)" fill="#f9f2f9"/><path d="M1237.209,1334.977c.487,2.449,1.562,4.1,2.778,4.1h12.694c.722,0,1.351-1.143,1.509-2.78l.855-8.7c.229-2.229-.519-4.344-1.511-4.344h-1.541C1249.688,1328.925,1245.021,1336.769,1237.209,1334.977Z" transform="translate(-1201.903 -1293.688)" fill="#1c1c44" opacity="0.46"/><path d="M1172.493,1274.874l4.609-2.266-.43-.478-4.733,1.989Z" transform="translate(-1108.996 -1254.256)" fill="#70748f"/><path d="M1179.464,1304.6l3.519-3.505-.046,1.045-3.567,3.624Z" transform="translate(-1116.575 -1276.602)" fill="#70748f"/><path d="M1181.061,1339.97l3.848-3.94-.052,1.153-3.9,3.837Z" transform="translate(-1118.865 -1303.546)" fill="#70748f"/><path d="M1199.313,1273.39l5.985.1-1.6-8.295-6.656-.288Zm14.569-9.042,7.22.313-.368-9.109-7.936-1.066Zm-2.4-10.04-8.819-1.184,2.1,10.828,7.815.338Zm2.545,11.336.88,8,6.566.108-.316-7.8Zm8.372-.928,8.219.357v-8.192l-8.583-1.143Zm9.509.414,7.1.309c.171-2.657.336-5.218.475-7.367l-7.579-1.017Zm8.391.363,2.716.119.576-6.989-2.823-.377Zm-.085,1.29-.471,7.279,2.574.044.592-7.207Zm-1.285-.057-7.021-.3v7.506l6.546.11C1238.6,1271.737,1238.768,1269.213,1238.926,1266.725Zm-8.311-.361-8.167-.354.313,7.774,7.854.13Zm-7.8,8.709.315,7.833h7.486v-7.7Zm-1.292-.023-6.475-.108.875,7.963h5.926Zm-7.774-.128-6.879-.114,1.573,8.1h6.182Zm-.142-1.294-.885-8.039-7.707-.336,1.6,8.258Zm-16.919-10.028,6.751.293-2.124-10.951-7.774-1.043Zm45.269,14.928.258-3.135-2.551-.041-.261,4.045c-.094,1.406-.158,2.389-.229,3.075a4.8,4.8,0,0,0,2.773-3.944Zm-4.079,4.331c.075-1.091.265-3.958.5-7.527l-6.461-.107v7.682h5.293a4.69,4.69,0,0,0,.663-.048Zm-36,.048h5.259l-1.575-8.121-5.89-.1Zm-9.118-32.416,51.616,6.937.555.686-1.687,20.516a6.1,6.1,0,0,1-4.39,5.332.4.4,0,0,1-.281.08h-.032a5.845,5.845,0,0,1-1.335.151h-36.316l-8.851-32.9Z" transform="translate(-1181.422 -1237.563)" fill="#aaafcb"/><path d="M1177.951,1274.22l-4.6,2.2-1.406,16.919,4.541-3.352Z" transform="translate(-1109.844 -1255.868)" fill="#b5c53e"/><path d="M1229.387,1491.788h.727a.871.871,0,0,0,.816-.75l.64-3.288h-3.521l.515,3.258a.875.875,0,0,0,.823.78Z" transform="translate(-1176.294 -1420.578)" fill="#aaafcb"/><path d="M1199.974,1467.352h30.264a3.5,3.5,0,0,0,2.483-1.043l3.029-3.1a1.614,1.614,0,0,0-1.143-2.743h-29.153a.647.647,0,0,0,0,1.292H1234.6a.322.322,0,0,1,.229.546l-3.032,3.1a2.2,2.2,0,0,1-1.559.654h-30.265a.647.647,0,0,0,0,1.292Z" transform="translate(-1174.376 -1399.535)" fill="#aaafcb"/><path d="M1361.974,1406.565a.628.628,0,0,0,.169-.023.645.645,0,0,0,.457-.791l-6.4-23.6a.639.639,0,0,0-.791-.458.6.6,0,0,0-.352.791l6.3,23.6A.645.645,0,0,0,1361.974,1406.565Z" transform="translate(-1336.375 -1338.748)" fill="#aaafcb"/><path d="M1232.92,1499a.645.645,0,1,0,.642-.643A.646.646,0,0,0,1232.92,1499Z" transform="translate(-1180.046 -1428.761)" fill="#bfc3d8"/><path d="M1330.8,1494a2.3,2.3,0,1,0,2.3-2.286A2.3,2.3,0,0,0,1330.8,1494Z" transform="translate(-1303.615 -1423.632)" fill="#252730"/><path d="M1334.5,1491.788h.727a.869.869,0,0,0,.816-.75l.642-3.288h-3.523l.514,3.251A.876.876,0,0,0,1334.5,1491.788Z" transform="translate(-1305.437 -1420.578)" fill="#aaafcb"/><path d="M1338.041,1499a.645.645,0,1,0,.643-.643A.644.644,0,0,0,1338.041,1499Z" transform="translate(-1309.2 -1428.761)" fill="#bfc3d8"/><path d="M1394.1,1195.21a.549.549,0,0,1,.661-.144l4.616,2.147,5.576,9.532c-.229.08-.478.341-.8.457l-5.521-9.44-4.344-2.026a.354.354,0,0,1-.188-.526Z" transform="translate(-1387.634 -1194.77)" fill="#aaafcb"/><path d="M1430.04,1211.995a.587.587,0,0,0,.206-.039.554.554,0,0,0,.228-.7l-5.855-9.831-4.616-2.149a.552.552,0,0,0-.661.144.354.354,0,0,0,.178.535l4.344,2.026,5.716,9.767A.556.556,0,0,0,1430.04,1211.995Z" transform="translate(-1418.965 -1198.019)" fill="#aaafcb"/><path d="M1434.231,1196.287a.65.65,0,0,0,.423.078l6.921-1.13a.645.645,0,0,0-.208-1.273l-6.921,1.127a.645.645,0,0,0-.215,1.2Z" transform="translate(-1433.903 -1193.953)" fill="#7a890b"/></g><path d="M2096.323,1681.632s2.871,5.536,1.435,7.69-6.561-.616-6.971-1.845,0-7.177,0-7.177Z" transform="translate(-2075.386 -1596.486)" fill="#da935b"/></g><g transform="translate(1132.655 258.048)"><ellipse cx="12.644" cy="12.644" rx="12.644" ry="12.644" fill="#3ece73"/><path d="M2464.971,2921.522l3.769,4.158,7.955-7.146" transform="translate(-2458.423 -2909.366)" fill="none" stroke="#fff" stroke-width="3"/></g><g transform="translate(938.645 323.946)"><path d="M1949.248,1463.67h7.4l-5.151-3.114.561-2.466c-1.177,0-1.46.776-2.648.776A25.605,25.605,0,0,0,1949.248,1463.67Z" transform="translate(-1935.154 -1436.286)" fill="#432c47"/><path d="M2002.02,1410.44h-5.412l-1.508,1.959,1.186,3.155,7.441-3.054Z" transform="translate(-1995.1 -1401.99)" fill="#102620"/><path d="M1902.382,1415.6v17a7.452,7.452,0,0,1-7.287,7.606h-21.988a7.449,7.449,0,0,1-7.287-7.606v-17Zm-10.448,19.057a1.121,1.121,0,0,0,1.087,1.121h.813a1.121,1.121,0,0,0,1.084-1.121v-6.779a1.121,1.121,0,0,0-1.084-1.121h-.813a1.121,1.121,0,0,0-1.087,1.121Zm0-10.369a1.121,1.121,0,0,0,1.087,1.121h.813a1.121,1.121,0,0,0,1.084-1.121v-6.779a1.121,1.121,0,0,0-1.084-1.121h-.813a1.121,1.121,0,0,0-1.087,1.121Zm-4.823,10.369a1.121,1.121,0,0,0,1.085,1.121h.813a1.122,1.122,0,0,0,1.084-1.121v-6.779a1.121,1.121,0,0,0-1.084-1.121h-.813a1.121,1.121,0,0,0-1.085,1.121Zm0-10.369a1.122,1.122,0,0,0,1.085,1.121h.813a1.122,1.122,0,0,0,1.084-1.121v-6.779a1.121,1.121,0,0,0-1.084-1.121h-.813a1.121,1.121,0,0,0-1.085,1.121Zm-4.829,10.369a1.121,1.121,0,0,0,1.088,1.121h.812a1.122,1.122,0,0,0,1.085-1.121v-6.779a1.121,1.121,0,0,0-1.085-1.121h-.812a1.121,1.121,0,0,0-1.088,1.121Zm0-10.369a1.121,1.121,0,0,0,1.088,1.121h.812a1.122,1.122,0,0,0,1.085-1.121v-6.779a1.121,1.121,0,0,0-1.085-1.121h-.812a1.121,1.121,0,0,0-1.088,1.121Zm-4.826,10.369a1.122,1.122,0,0,0,1.085,1.121h.81a1.121,1.121,0,0,0,1.085-1.121v-6.779a1.121,1.121,0,0,0-1.085-1.121h-.815a1.121,1.121,0,0,0-1.084,1.121Zm0-10.369a1.122,1.122,0,0,0,1.085,1.121h.81a1.121,1.121,0,0,0,1.085-1.121v-6.779a1.121,1.121,0,0,0-1.085-1.121h-.815a1.121,1.121,0,0,0-1.084,1.121Zm-4.825,10.369a1.121,1.121,0,0,0,1.087,1.121h.81a1.122,1.122,0,0,0,1.087-1.121v-6.779a1.121,1.121,0,0,0-1.087-1.121h-.81a1.121,1.121,0,0,0-1.087,1.121Zm0-10.369a1.121,1.121,0,0,0,1.087,1.121h.81a1.122,1.122,0,0,0,1.087-1.121v-6.779a1.121,1.121,0,0,0-1.087-1.121h-.81a1.12,1.12,0,0,0-1.087,1.121Zm-4.826,10.369a1.121,1.121,0,0,0,1.084,1.121h.813a1.122,1.122,0,0,0,1.088-1.121v-6.779a1.121,1.121,0,0,0-1.088-1.121h-.813a1.121,1.121,0,0,0-1.084,1.121Zm0-10.369a1.122,1.122,0,0,0,1.084,1.121h.813a1.122,1.122,0,0,0,1.088-1.121v-6.779a1.121,1.121,0,0,0-1.088-1.121h-.813a1.121,1.121,0,0,0-1.084,1.121Z" transform="translate(-1857.524 -1405.705)" fill="#959bbe"/><path d="M1860.65,1407.553h39.471a3.133,3.133,0,0,0-3.133-3.133h-33.2A3.133,3.133,0,0,0,1860.65,1407.553Z" transform="translate(-1853.815 -1397.658)" fill="#959bbe"/><path d="M1931.741,1402.194a7.134,7.134,0,0,0-.339-1.474c-.143-.146.227-1.373.227-1.373l.734-.911s.143-1.875.311-1.875a2.387,2.387,0,0,0,.623-.235s1.471-3.568,1.471-3.7,1.273-.577,1.273-.577l1.28-.176.869-.323,1.864.235v1.356l1.556-.561,1.3,1.121v.031l1.012,1.062.706-1.4,2.242.4.427,3.105,1.682-2.312,2.545,1.211v2.881l1.2-.342.667,1.239-1.328,4.047-4.1,2.242-3.338-1.617-2.937.28-3.7,1.267-1.611-1.945-1.073-.885-.822.841-.056,1.3.311.28.763,1.031c0,.415-1.161.885-1.161.885l-1.27-.65-.367-1.738s-1.334-1.4-1.334-1.682A3.9,3.9,0,0,1,1931.741,1402.194Z" transform="translate(-1926.899 -1388.395)" fill="#009245"/><path d="M1989.225,1391.567l-.622-11.277-.793.179Z" transform="translate(-1978.556 -1380.29)" fill="#006837"/><path d="M1988.939,1382.19l2.461,10.821h-.188l-3.4-10.644Z" transform="translate(-1980.731 -1381.657)" fill="#006837"/><path d="M1987.133,1414.1a1.8,1.8,0,0,0-1.4.742c-.28.606,2.29,7.567,2.29,7.567h1.682S1988.363,1414.1,1987.133,1414.1Z" transform="translate(-1978.445 -1404.625)" fill="#f13f00"/><path d="M1978.762,1415.72a1.805,1.805,0,0,0-1.4.743c-.28.6,2.29,7.567,2.29,7.567h1.7S1979.993,1415.72,1978.762,1415.72Z" transform="translate(-1967.746 -1405.791)" fill="#f13f00"/><path d="M1997.778,1383.98l2.234,8.547-.356.135-3.066-8.239Z" transform="translate(-1991.803 -1382.946)" fill="#006837"/><path d="M1998.992,1390.4l3.262,6.883-.289.171-4.105-6.289Z" transform="translate(-1994.402 -1387.567)" fill="#006837"/><path d="M1994.245,1415.72l-.445.154S1994.032,1416.045,1994.245,1415.72Z" transform="translate(-1985.255 -1405.791)" fill="#ff3c00"/><path d="M1994.946,1417.61l-.446.157S1994.733,1417.938,1994.946,1417.61Z" transform="translate(-1986.151 -1407.151)" fill="#ff3c00"/><path d="M1996.956,1416.76l-.446.157S1996.745,1417.088,1996.956,1416.76Z" transform="translate(-1988.724 -1406.539)" fill="#ff3c00"/><path d="M1992.656,1417.86l-.446.157S1992.434,1418.18,1992.656,1417.86Z" transform="translate(-1983.219 -1407.331)" fill="#ff3c00"/><path d="M1934.439,1441.241l.1,1.382.045.614a17.147,17.147,0,0,0,.253,1.931c.529,2.778,1.7,4.652,3.024,4.652h13.813c.791,0,1.471-1.309,1.645-3.155l.93-9.879c.017-.21.034-.42.036-.625.064-2.287-.692-4.311-1.681-4.311h-14.893C1935.644,1431.85,1934.077,1436.345,1934.439,1441.241Z" transform="translate(-1928.651 -1417.4)" fill="#3b9edb"/><path d="M1961.13,1472.644h4.664v-4.164h-1.031l-.6,2.76-.359-2.76h-2.677Z" transform="translate(-1947.647 -1443.765)" fill="#e81515"/><rect width="11.829" height="1.696" transform="translate(8.209 29.676)" fill="#e56f17"/><rect width="3.214" height="3.268" transform="translate(19.623 17.446)" fill="#a1dd3a"/><path d="M1934.439,1441.241l.1,1.382c5.045-2.29,6.55-4.288,14.262-6.146a14.838,14.838,0,0,1,5.484-.317c.064-2.287-.692-4.311-1.681-4.311h-14.893C1935.644,1431.85,1934.078,1436.345,1934.439,1441.241Z" transform="translate(-1928.652 -1417.4)" fill="#f7931e"/><path d="M1934.389,1445.165c.53,2.783,1.7,4.655,3.024,4.655h13.814c.788,0,1.471-1.311,1.645-3.155l.927-9.879c.238-2.522-.561-4.935-1.645-4.935h-1.682C1947.973,1438.3,1942.892,1447.2,1934.389,1445.165Z" transform="translate(-1928.201 -1417.4)" fill="#1c1c44" opacity="0.46"/><path d="M1997.3,1419.28l-.445.157S1997.086,1419.605,1997.3,1419.28Z" transform="translate(-1989.16 -1408.353)" fill="#ff3c00"/><path d="M1994.245,1419.82l-.445.154S1994.032,1420.151,1994.245,1419.82Z" transform="translate(-1985.255 -1408.742)" fill="#ff3c00"/><path d="M1995.516,1422l-.445.157S1995.3,1422.331,1995.516,1422Z" transform="translate(-1986.881 -1410.311)" fill="#ff3c00"/><path d="M1995.946,1424.37l-.445.154S1995.733,1424.7,1995.946,1424.37Z" transform="translate(-1987.431 -1412.017)" fill="#ff3c00"/><path d="M1993.736,1422.14l-.446.157S1993.523,1422.465,1993.736,1422.14Z" transform="translate(-1984.602 -1410.412)" fill="#ff3c00"/><path d="M1992.513,1423.87l-.442.157S1992.3,1424.187,1992.513,1423.87Z" transform="translate(-1983.038 -1411.657)" fill="#ff3c00"/><path d="M1986.511,1421.55l-.452.129S1986.281,1421.864,1986.511,1421.55Z" transform="translate(-1975.351 -1409.987)" fill="#ff3c00"/><path d="M1987.674,1423l-.454.129S1987.455,1423.322,1987.674,1423Z" transform="translate(-1976.839 -1411.031)" fill="#ff3c00"/><path d="M1989.006,1422l-.445.151S1988.79,1422.328,1989.006,1422Z" transform="translate(-1978.547 -1410.311)" fill="#ff3c00"/><path d="M1984.984,1422.71l-.454.129S1984.754,1423.024,1984.984,1422.71Z" transform="translate(-1973.396 -1410.822)" fill="#ff3c00"/><path d="M1986.511,1425l-.452.129S1986.281,1425.314,1986.511,1425Z" transform="translate(-1975.351 -1412.47)" fill="#ff3c00"/><path d="M1988.264,1427l-.454.129S1988.034,1427.3,1988.264,1427Z" transform="translate(-1977.595 -1413.91)" fill="#ff3c00"/><path d="M1881.452,1431.546l.118,1.55.05.689a20.688,20.688,0,0,0,.28,2.169c.6,3.119,1.906,5.224,3.394,5.224h15.512c.885,0,1.651-1.471,1.844-3.545l1.046-11.089c.02-.238.036-.471.039-.7.076-2.567-.773-4.84-1.886-4.84h-16.72C1882.806,1421,1881.046,1426.045,1881.452,1431.546Z" transform="translate(-1863.247 -1409.591)" fill="#3b9edb"/><path d="M1911.4,1466.808h5.235v-4.677h-1.161l-.667,3.1-.4-3.1h-3Z" transform="translate(-1884.552 -1439.194)" fill="#e81515"/><rect width="13.281" height="1.9" transform="translate(20.926 28.507)" fill="#e56f17"/><rect width="3.612" height="3.668" transform="translate(33.739 14.772)" fill="#a1dd3a"/><path d="M1881.411,1431.546l.118,1.55c5.678-2.57,7.354-4.812,16.011-6.9a16.6,16.6,0,0,1,6.165-.358c.075-2.567-.773-4.84-1.886-4.84H1885.1C1882.765,1421,1881.005,1426.045,1881.411,1431.546Z" transform="translate(-1863.206 -1409.591)" fill="#ffcb57"/><path d="M1881.359,1435.951c.6,3.122,1.909,5.227,3.394,5.227h15.511c.883,0,1.651-1.471,1.845-3.545l1.045-11.087c.28-2.842-.636-5.546-1.847-5.546h-1.883C1896.61,1428.239,1890.9,1438.235,1881.359,1435.951Z" transform="translate(-1862.703 -1409.591)" fill="#1c1c44" opacity="0.46"/><path d="M1916.919,1415.6v17a7.453,7.453,0,0,1-7.287,7.606h-21.986a7.449,7.449,0,0,1-7.286-7.606v-17Zm-5.619,19.057a1.121,1.121,0,0,0,1.084,1.121h.813a1.122,1.122,0,0,0,1.085-1.121v-6.779a1.121,1.121,0,0,0-1.085-1.121h-.813a1.121,1.121,0,0,0-1.085,1.121Zm0-10.369a1.121,1.121,0,0,0,1.084,1.121h.813a1.122,1.122,0,0,0,1.085-1.121v-6.779a1.121,1.121,0,0,0-1.085-1.121h-.813a1.121,1.121,0,0,0-1.085,1.121Zm-4.829,10.369a1.121,1.121,0,0,0,1.087,1.121h.813a1.122,1.122,0,0,0,1.085-1.121v-6.779a1.121,1.121,0,0,0-1.085-1.121h-.813a1.121,1.121,0,0,0-1.087,1.121Zm0-10.369a1.121,1.121,0,0,0,1.087,1.121h.813a1.122,1.122,0,0,0,1.085-1.121v-6.779a1.121,1.121,0,0,0-1.085-1.121h-.813a1.121,1.121,0,0,0-1.087,1.121Zm-4.823,10.369a1.105,1.105,0,0,0,1.082,1.121h.816a1.121,1.121,0,0,0,1.084-1.121v-6.779a1.121,1.121,0,0,0-1.084-1.121h-.818a1.121,1.121,0,0,0-1.082,1.121Zm0-10.369a1.1,1.1,0,0,0,1.082,1.121h.816a1.121,1.121,0,0,0,1.084-1.121v-6.779a1.121,1.121,0,0,0-1.084-1.121h-.818a1.121,1.121,0,0,0-1.082,1.121Zm-4.829,10.369a1.122,1.122,0,0,0,1.085,1.121h.813a1.122,1.122,0,0,0,1.088-1.121v-6.779a1.121,1.121,0,0,0-1.088-1.121h-.813a1.122,1.122,0,0,0-1.085,1.121Zm0-10.369a1.122,1.122,0,0,0,1.085,1.121h.813a1.122,1.122,0,0,0,1.088-1.121v-6.779a1.121,1.121,0,0,0-1.088-1.121h-.813a1.122,1.122,0,0,0-1.085,1.121Zm-4.825,10.369a1.121,1.121,0,0,0,1.084,1.121h.816a1.121,1.121,0,0,0,1.084-1.121v-6.779a1.121,1.121,0,0,0-1.084-1.121h-.816a1.121,1.121,0,0,0-1.084,1.121Zm0-10.369a1.121,1.121,0,0,0,1.084,1.121h.816a1.121,1.121,0,0,0,1.084-1.121v-6.779a1.121,1.121,0,0,0-1.084-1.121h-.816a1.121,1.121,0,0,0-1.084,1.121Zm-4.826,10.369a1.12,1.12,0,0,0,1.084,1.121h.812a1.121,1.121,0,0,0,1.085-1.121v-6.779a1.121,1.121,0,0,0-1.085-1.121h-.812a1.12,1.12,0,0,0-1.084,1.121Zm0-10.369a1.121,1.121,0,0,0,1.084,1.121h.812a1.121,1.121,0,0,0,1.085-1.121v-6.779a1.121,1.121,0,0,0-1.085-1.121h-.812a1.12,1.12,0,0,0-1.084,1.121Zm-4.826,10.369a1.121,1.121,0,0,0,1.085,1.121h.8a1.121,1.121,0,0,0,1.085-1.121v-6.779a1.121,1.121,0,0,0-1.085-1.121h-.813a1.121,1.121,0,0,0-1.084,1.121Zm0-10.369a1.122,1.122,0,0,0,1.085,1.121h.8a1.121,1.121,0,0,0,1.085-1.121v-6.779a1.121,1.121,0,0,0-1.085-1.121h-.813a1.121,1.121,0,0,0-1.084,1.121Z" transform="translate(-1876.136 -1405.705)" fill="#aaafcb"/><rect width="36.573" height="0.504" transform="translate(4.209 9.896)" fill="#466320"/><path d="M1875.2,1407.553h39.459a3.131,3.131,0,0,0-3.13-3.133h-33.2A3.13,3.13,0,0,0,1875.2,1407.553Z" transform="translate(-1872.431 -1397.658)" fill="#959bbe"/><path d="M1914.248,1405.261H1876.6a1.828,1.828,0,0,0-.645.115,1.87,1.87,0,0,1,1.614-.956h35.7a1.871,1.871,0,0,1,1.617.956A1.84,1.84,0,0,0,1914.248,1405.261Z" transform="translate(-1872.877 -1397.658)" fill="#aaafcb"/><path d="M1846.286,1409.3l-.045.333a1.681,1.681,0,0,0,1.5,1.867l15.974,1.942.474-3.644-15.958-1.942A1.713,1.713,0,0,0,1846.286,1409.3Z" transform="translate(-1813.839 -1400.115)" fill="#7a890b"/><path d="M1903.67,1411.542a.768.768,0,0,0-.863.65.754.754,0,0,0,.67.841.77.77,0,0,0,.866-.65.756.756,0,0,0-.672-.841Z" transform="translate(-1869.855 -1402.778)" fill="#e7a8a6"/><path d="M1979.86,1408.712l-.064-.331a1.726,1.726,0,0,0-2.018-1.334l-15.8,2.887.7,3.615,15.8-2.9a1.681,1.681,0,0,0,1.384-1.942Z" transform="translate(-1961.975 -1399.526)" fill="#6a780a"/><path d="M1964.912,1412.124a.752.752,0,0,0,.617-.874.772.772,0,0,0-.9-.6.749.749,0,0,0-.616.875A.771.771,0,0,0,1964.912,1412.124Z" transform="translate(-1948.198 -1402.133)" fill="#e7a8a6"/></g><g transform="translate(881.425 294.717)"><g transform="translate(0 0)"><g transform="translate(36.023 22.665)"><g transform="translate(0)"><path d="M350.994,360.034c-1.224.635-16.477-27.952-17.483-30.207-1.334-2.993-3.424-26.061-4.419-28.321,1.248-7.572,8.5-8.992,10.593,1.841,0,0,1.226,19.085,2.194,24.106C341.945,327.8,353.75,358.6,350.994,360.034Z" transform="translate(-329.092 -295.524)" fill="#fe8e80" fill-rule="evenodd"/></g><g transform="translate(19.081 58.451)"><path d="M327.381,348.062c.268.089,1.889,4.876,2.069,5.21a9.429,9.429,0,0,0,2.03,2.731c.86.86.9.349,1.307.739.087.082-.189.413-.955.513a1.722,1.722,0,0,1-1.527-.632c.358,1.437,1.808,6.433,1.08,6.668-.385.123-1.832-5.508-1.835-5.441-.02.56.146,3.867.285,5.1.136,1.189-.049,1.331-.129,1.45s-.275-.352-.344-.743c-.218-1.263-1.131-5.18-1.163-5.644-.005-.095-.121,3.914-.367,5.36-.165.971-.529,1.658-.65-.011a35.031,35.031,0,0,1,.081-3.637c.019-.551-.1-1.54-.078-2.089.009-.239-.544,2.419-.81,3.338a6.33,6.33,0,0,1-.59,1.414c-.139.249-.408-.178-.329-.629a15.663,15.663,0,0,0,.5-3.461c-.071-1.064-.207-5.732-1.037-7.675C324.534,349.716,327.381,348.062,327.381,348.062Z" transform="translate(-324.883 -348.062)" fill="#fe8e80" fill-rule="evenodd"/></g></g><g transform="translate(30.393 56.088)"><path d="M343.366,327.426s1.515,8.933,2.873,19.744c1.385,8.607-2.8,25.451-3.815,39.847-.768,10.775.088,26.411.85,36.893.147,2.011,9.661,5.195,14.067,7.571,0,0-3.922,1.729-10.2-.605-3.536-1.314-7.359.707-8.957-.551-1.954-1.537.448-4.091-.028-5.654-2.984-9.795-12.369-28.9-6.164-39.529,0,0-10-48.39-3.194-57.717C331.852,323.241,343.366,327.426,343.366,327.426Z" transform="translate(-326.425 -325.566)" fill="#415da5" fill-rule="evenodd"/><g transform="translate(0.525 0.267)"><g clip-path="url(#c)"><path d="M324.907,409.924l-36.6-.29,1.157-85.466,36.6.29Z" transform="translate(-253.268 -325.99)" fill="#415da5" fill-rule="evenodd"/><g transform="translate(1.158 19.25)"><path d="M353.906,344.178a.946.946,0,0,0-1.813-.477c-.84,1.811-5.345,5.379-5.98,7.272-1.376,4.579-2.628,9.205-3.869,13.831-.822,3.068-.754,8.159.576,5.249,3.041-6.651,7.857-15.586,9.213-20.153C352.54,347.956,353.284,346.089,353.906,344.178Z" transform="translate(-341.706 -343.108)" fill="#355493" fill-rule="evenodd"/></g></g></g></g><g transform="translate(16.018 56.363)"><path d="M365.67,327.707s.646,9.037.954,19.928c.55,8.7-5.245,25.062-7.64,39.294-1.8,10.651-2.46,26.3-2.712,36.8-.048,2.018,9.116,6.1,13.272,8.894,0,0-4.071,1.342-10.094-1.586-3.393-1.649-7.394-.007-8.864-1.412-1.8-1.718.841-4.028.518-5.631-2.026-10.037-9.524-29.958-2.323-39.939,0,0-5.449-41.191,8.791-56.35C361.017,323.835,365.67,327.707,365.67,327.707Z" transform="translate(-345.721 -325.793)" fill="#415da5" fill-rule="evenodd"/><g clip-path="url(#d)"><path d="M337.818,410.7l-36.39-2.987,11.932-84.982,36.39,2.987Z" transform="translate(-276.65 -326.16)" fill="#415da5" fill-rule="evenodd"/></g></g><g transform="translate(37.728 21.909)"><g transform="translate(0)"><path d="M339.359,330.174l-1.7-33.954,2.332-1.375a7.409,7.409,0,0,1,6.476,6.043l2.273,26.641Z" transform="translate(-337.66 -294.845)" fill="#fe7e3f" fill-rule="evenodd"/></g></g><path d="M2575.35,1153.231a5.484,5.484,0,0,1,7.633-.184A29.546,29.546,0,0,0,2575.35,1153.231Z" transform="translate(-2543.062 -1149.829)" fill="#89bccb"/><path d="M2429.7,1140.7a7.235,7.235,0,0,0-3.9-.745,1.778,1.778,0,0,1,.822-.39,6.015,6.015,0,0,0-2.155.563c-9.281-3.575-10.731,10.085-10.541,13.259s-3.116,4.205-7.944,6.709c-9.209,4.771-10.018,11.167-10.018,11.167.071.042.145.09.226.145.457-.774,1.4-2.227,2.191-2.448a32.544,32.544,0,0,0-1.276,3.109c2.716,2.067,7.8,6.645,11.342,9.892a5.2,5.2,0,0,1,.241-2.011l.435,2.636c1.9,1.74,3.2,2.969,3.2,2.969-.233-2.565,11.6-16.1,17.772-20.158,1.5-2.213,2.03-6.121,2.078-6.429a16.861,16.861,0,0,1-1.264,5.815C2436.144,1159.976,2433.1,1142.636,2429.7,1140.7Z" transform="translate(-2389.696 -1139.54)" fill="#233862"/><path d="M2577.786,1265.385c.032.013-3.45,1.553-5.716.934-2.132-.58-3.524-3.344-3.494-3.351.9-.178,1.16-1.418,1.144-6.748l.407.081,6.859,1.357s-.155,2.159-.159,4.192C2576.822,1263.56,2577.4,1265.2,2577.786,1265.385Z" transform="translate(-2537.27 -1239.299)" fill="#d9935c"/><path d="M2586.129,1258.137s-.155,2.159-.159,4.193c-3.839-.107-5.867-3.61-6.7-5.55Z" transform="translate(-2546.413 -1239.778)" fill="#cb8757"/><path d="M2559.336,1168.531a20.2,20.2,0,0,1-2.494-5.9c-.345-1.94.644-9.136,7.87-8.1a9.818,9.818,0,0,1,4.072,1.54c1.569,1.059,3.835,3.347,1.305,9.623l-.658,2.12Z" transform="translate(-2527.188 -1152.276)" fill="#233862"/><path d="M2581.235,1189.05s-9.081.145-9.087-5.511-1.183-9.448,4.614-9.783,6.928,1.823,7.389,3.71S2583.6,1188.866,2581.235,1189.05Z" transform="translate(-2540.238 -1168.764)" fill="#d9935c"/><path d="M2566.666,1166.959c-1.4-1.7-2.465-1.328-3.057-.818-1.962-2.934-8.165,1.305-8.165,1.305a10.787,10.787,0,0,1-3.534,6.381s1.655,1.015,5.471.042c3-.773,5.181-5.047,5.975-6.833a7.26,7.26,0,0,1,2.02,2.676c.452,1.44.657,4.406,1.521,4.306C2566.9,1174.024,2568.772,1169.512,2566.666,1166.959Z" transform="translate(-2523.021 -1161.4)" fill="#233862"/><g transform="translate(26.166 21.075)"><path d="M358.949,313.365c-.039.952,1.7,8.622,1.433,16.1-.018.492-11.028,5.938-21.708,1.5.306-2.83,2.977-11.127,1.111-14.151-1.207-1.957-2.089-16.506-3.06-18.093,2.424-1.439,4.614-2.965,5.781-4.629,0,0,3.205,5.25,7.423,3.655,1.095-.414.116-3.261.691-2.82a118.919,118.919,0,0,1,7.753,9.314C361.871,309.163,358.976,312.7,358.949,313.365Z" transform="translate(-336.725 -294.095)" fill="#fe7e3f" fill-rule="evenodd"/></g><g transform="translate(6.549 26.08)"><path d="M354.307,319.588c3.8-4.98,13.935-16.931,13.935-16.931,6.56-7.549,11.133-3.706,9.557,4.4-4.427,7.033-13.084,15.437-17.365,18.94C358.919,327.232,351.662,323.051,354.307,319.588Z" transform="translate(-353.732 -298.594)" fill="#fe8e80" fill-rule="evenodd"/></g><path d="M352.75,316.761l7.938,6.171,12.379-12.315s3.849-7.061,1.988-10.024c-.966-1.539-.584-5.433-.584-5.433a25.181,25.181,0,0,0-12.332,9.183c-5.051,6.87-9.39,12.417-9.39,12.417" transform="translate(-343.543 -272.9)" fill="#fe7e3f"/><path d="M355.27,318.94h0c4.339,2.483-1.291,16.723-1.291,16.723" transform="translate(-326.05 -271.449)" fill="none" stroke="#ffd259" stroke-miterlimit="10" stroke-width="1"/><g transform="translate(5.691 46.027)"><path d="M353.635,316.609c6.579.557,25.862,3.576,25.862,3.576,1,.555-.658,3.31-3.958,3.365-7.1.12-19.6,2.68-23.263,1.818a9.479,9.479,0,0,1-4.957-2.9c-1.455-1.65-1.056-3.783,1.554-5.271A8.216,8.216,0,0,1,353.635,316.609Z" transform="translate(-346.482 -316.523)" fill="#fe8e80" fill-rule="evenodd"/></g><g transform="translate(32.927 48.762)"><path d="M336.655,319.063c.31-.1,6.357-.278,8.381.68a10.927,10.927,0,0,0,3.753,1.179c1.388.22,1.077-.282,1.726-.2.137.018.1.514-.545,1.128a2,2,0,0,1-1.859.445c1.312,1.1,6.058,4.793,5.535,5.506-.276.377-5.452-3.912-5.408-3.847.361.537,2.759,3.52,3.724,4.575.933,1.022.857,1.279.863,1.444s-.5-.141-.827-.462c-1.061-1.032-4.575-4.08-4.919-4.492-.069-.086,2.542,3.745,3.294,5.266.5,1.02.629,1.911-.615.431a40.693,40.693,0,0,1-2.393-3.46c-.355-.527-1.134-1.375-1.489-1.9-.156-.23,1.131,2.632,1.505,3.673a7.3,7.3,0,0,1,.408,1.723c.038.328-.5.111-.734-.364a18.172,18.172,0,0,0-1.884-3.577c-.789-.948-4.252-3.948-8.275-3.986C335.925,322.245,336.655,319.063,336.655,319.063Z" transform="translate(-336.392 -318.981)" fill="#fe8e80" fill-rule="evenodd"/></g><path d="M310.881,354.99l32.141,2.562L347,328.375l-32.14-2.562Z" transform="translate(-310.881 -267.809)" fill="#ffd259"/><path d="M369.688,318.131c-4.278-2.462-7.786-.453-9.746,2.106a25.393,25.393,0,0,0-4.307,9.747" transform="translate(-340.468 -270.64)" fill="none" stroke="#ffd259" stroke-miterlimit="10" stroke-width="1"/></g><g transform="translate(19.456 154.938)"><path d="M344.405,415.275c-.122.32.073.937-.058,1.338a13.306,13.306,0,0,0-.57,4s-.246.046-.215.27c.076.535-.122,1.245.245,1.332,1.5.355,7.977-.3,9.794.151s10.626,1.64,12.722.136a.577.577,0,0,0-.1-.528c-.029-.038-.138-.039-.177-.077a6.646,6.646,0,0,0-2.185-1.174c-2.6-.991-10.061-4.074-11.04-6.31,0,0-1,.023-1,1.281s-.181.976-2,.277c-1.081-.416-2.608-1.03-3.667-1.459A1.339,1.339,0,0,0,344.405,415.275Z" transform="translate(-343.56 -414.416)" fill="#fe7e3f" fill-rule="evenodd"/></g><g transform="translate(40.236 154.586)"><path d="M325.728,414.959c-.124.32.073.937-.058,1.338a13.3,13.3,0,0,0-.57,4s-.246.046-.215.27c.076.535-.122,1.245.245,1.332,1.5.356,7.977-.3,9.794.151s10.625,1.64,12.722.136a.576.576,0,0,0-.1-.528c-.029-.038-.138-.039-.177-.077a6.654,6.654,0,0,0-2.185-1.174c-2.6-.99-10.062-4.074-11.04-6.31,0,0-1,.023-1,1.282s-.181.975-2,.276c-1.081-.416-2.608-1.03-3.667-1.459A1.339,1.339,0,0,0,325.728,414.959Z" transform="translate(-324.883 -414.1)" fill="#fe7e3f" fill-rule="evenodd"/></g></g></g></svg>